<svg width="826" height="522" fill="none" xmlns="http://www.w3.org/2000/svg"><path fill-rule="evenodd" clip-rule="evenodd" d="M523.3-346.06l31.649 14.548 19.656-29.734-6.326-53.363-.849.104-44.13 68.445zm32.37 14.879l19.078-28.86 4.719 39.799-23.797-10.939zm19.748-29.872l4.884 41.194 7.457 3.428 20.054-79.812-6.831-3.481-25.564 38.671zm25.999-39.33l6.592 3.36 5.404-21.506-11.996 18.146zm7.113 4.505l-20.047 79.78 62.998 28.959 58.114-19.411-55.45-66.08-45.615-23.248zm44.325 21.71l-44.129-22.49 5.82-23.163 38.309 45.653zm3.079 2.449l54.46 64.902 44.031-14.707-98.491-50.195zm100.436 50.276l-.181.067-.52-.386-.234.314h-.001l.179-.35-100.97-51.459-38.656-46.067 208.542 113.883-36.871 7.446-31.183-23.168-.105-.28zm-7.926 31.367l7.235-30.702.143.106 10.132 27.06-17.51 3.536zm18.288-3.694l-9.75-26.04 29.642 22.023-19.892 4.017zm.279.744l20.459-4.132 26.985 20.049-20.976 54.772-26.468-70.689zm26.884 71.798l21.214-55.395 43.723 32.485 26.902 48.918-62.04 12-23.064-20.019-6.735-17.989zm21.505-56.155l42.524 31.594-32.2-58.551-10.324 26.957zm12.368-24.866l31.669 57.584 55.688 41.375-87.357-98.959zm-1.967-3.391L614.542-421.006l-.186.341-.003.003-.048-.389-43.066 5.288-2.642-1.346-.178.35h-.001v-.001l-.129-.37-7.714 2.677-146.567 17.998.369-.775-.708-.337-.633 1.331-197.464 59.184-.202-.789-.759.195.21.82-.29.086.113.376-.356-.164-29.481 63.896L31.859-110.081l-.715-.044-.049.782.066.004-.673.716.286.269-.003.001-.384.063L60.839 77.975l11.976 175.017.39-.027.001.001v.001l-.228.32 78.266 55.579 48.069 72.294.327-.218-.232.316 116.763 85.424.23-.315-.008.39 148.101 2.95 86.947 19.02.084-.383.051.389 143.515-18.643-.05-.386.269.282 122.505-117.023-.271-.284v-.001l.321.227 19.789-27.91 64.556-40.931-.209-.33.371.117 81.74-260.747-.374-.118.209-.333L950.605 1.68l12.227-63.87-.383-.073v-.001l.255-.295-5.966-5.179-44.502-80.92 5.73-52.277-.388-.043.234-.315-.563-.418.177-.156-91.386-103.524-.037-.067-.015.009-.141-.161.002-.003-.009-.005-.028-.031-.011.01zM73.543 252.152L62.19 86.243l19.213 117.519.385-.064-.325.217 17.399 26.168-25.319 22.069zM61.618 77.885L81.5 199.49l3.254-134.067-27.158-56.3-.686-.056 4.71 68.817zM31.6-105.733l28.668 175.35L56.12 9.004l-.655-.053.032-.39-.356-.165.816-1.769-.077-1.125.392-.027.003-.001.282-.266.037.04L70.5-24.892l-38.9-80.841zM950.446 2.506l32.429 20.399-39.298 15.483 6.869-35.882zm32.672 21.146L943.402 39.3l-35.795 186.972-.383-.073h-.001l.319.227-7.855 11.079 2.578 44.068 80.853-257.921zm-81.559 259.282l-2.598-44.406-19.992 28.197 22.59 16.209zm-1.945-46.681l6.225-8.781-6.514 3.851.289 4.93zm-1.048-4.481l.322 5.504-20.556 28.992-17.22-12.356 37.454-22.14zm.708-1.33l7.205-4.259-7.749-5.036.544 9.295zm-1.36-9.826l.601 10.275-38.099 22.521-63.35-45.457 23.518-37.602 77.33 50.263zm.759-.441l7.903 5.136-9.697-35.803 1.794 30.667zm-2.795-34.366l1.979 33.835L821 169.688l49.206-78.672 25.672 94.793zm.778-.127l10.5 38.774L942.539 39.64l-53.2 20.96 7.317 125.082zm-8.045-124.093l7.043 120.394-24.881-91.873 17.838-28.521zm61.123-59.531l-7.021 36.67-53.322 21.009 6-54.729 22.867-22.751 31.476 19.8zM317.532 465.996l143.018 2.848-114.051-24.948-28.967 22.1zm150.999 3.792l81.875 17.91-21.498-23.607-37.901 6.138-.063-.387-.009.392-22.404-.446zm21.955-.347l-25.9-.516-117.269-25.653 9.035-6.893 105.49-36.788 10.672 2.574 9.367 10.286 8.605 56.99zM70.925-25.814l-39.682-82.468.935-.993 75.086 4.702-36.34 78.759zm36.692-79.523l-74.74-4.68 150.894-160.37-76.154 165.05zm21.827-45.436l56.021-121.415 15.267-16.225-58.035 149.882-13.253-12.242zm85.352-184.984l-28.295 61.324 15.036-15.98.286.268.003.001.388.019-9.199 190.136 83.294 5.216-2.761-6.873.727-.292 2.9 7.22 100.64 6.301-34.138-39.359-69.246 24.811-.265-.738 68.96-24.708-36.643-42.248-31.484 66.114-.354-.169-.379.097-37.477-146.394-33.5-38.623-.183.064-.159-.459-1.075-1.239.593-.514 1.069 1.233 21.246-7.373-9.614-37.555-.37-.28zm101.601 801.632l29.097-22.199-6.294-1.377.084-.381-.227.319-6.578-4.672 6.435 6.676-.565.544-9.323-9.671-84.686-60.138-43.689 6.219 115.746 84.68zm174.875 3.517l37.005-5.994-45.446-49.903 8.441 55.897zm38.56-5.451l21.662 23.786 22.948-31.012-44.61 7.226zm45.278-8.128l-45.908 7.436-46.581-51.15-1.175-7.78 111.815 26.966-18.151 24.528zm.441.723l-23.163 31.301 142.294-18.485 5.734-57.341-51.409 32.596-.21-.331.062.386-73.308 11.874zm130.938-105.242l-57.508 91.945-13.969-67.056 13.78-18.621 58.356-12.858-.659 6.59zm-58.203 92.455l-13.899-66.721-39.792 53.772 53.691 12.949zm-54.519-13.148l40.405-54.602-3.031-14.548-151.14 33.3 1.319 8.731 112.447 27.119zm53.859-72.783l-12.829 17.337-2.89-13.873 15.719-3.464zm.71-.959l-16.589 3.655-10.104-48.504 46.456 18.143-19.763 26.706zm-64.996-59.808l37.431 14.618 10.211 49.014-151.098 33.291-1.55-10.266 44.978-62.149 60.028-24.508zm1.054-.43l36.186 14.132-5.55-26.64-30.636 12.508zm29.494-12.889l-30.555 12.474-31.296-12.222 46.915-2.741 14.936 2.489zm1.428-.161v.002h.002v-.002h-.002zm-33.036 13.066l-58.098 23.719 26.185-36.182 31.913 12.463zm-59.472 24.28l26.642-36.813-142.668 2.662 64.963 54.999 51.063-20.848zm-.87 1.202l-49.832 20.345 6.061 40.138 43.771-60.483zm146.644 7.381l-47.13-18.407-5.652-27.129 86.443.049-33.661 45.487zm-21.771 114.7l-70.593 11.433 17.87-24.148 52.723 12.715zm-292.84-6.991l-7.659 5.843-5.59-1.222 13.249-4.621zm4.386-2.359l102.078-35.598-42.108-10.155-59.97 45.753zm59.186-46.141l-61.568 46.971-16.63 5.8-9.805-6.963-60.752-63.021 97.427-13.869 51.328 31.082zm-264.515-78.576l46.296 69.628 2.325-35.101-48.621-34.527zm-1.211-1.822l-23.156-34.826 68.485 24.823 7.086 7.351-2.522 38.082-49.893-35.43zm-24.397-35.276l22.613 34.009-74.246-52.724 51.633 18.715zm.51-.649l68.663 24.888-25.207-52.256-58.064-26.499-13.426 11.703 28.034 42.164zM99.3 230.742l27.39 41.194-52.725-19.111L99.3 230.742zm.158-1.178l13.081-11.403-29.664-13.537 16.583 24.94zM71.366-24.898l36.738-79.623 20.917 1.31L86.511 6.578 71.366-24.898zM91.51 11.077l-4.49-3.64 42.822-110.596 53.629 3.358 8.376 7.736-5.362 110.816-94.975-7.674zm-4.587-2.709l3.204 2.597-3.261-.263.057-2.334zm96.323 78.063l-92.04-74.592-4.36-.352-.612 25.232 105.557 112.074-8.545-62.362zm.904.82l8.383 61.182 29.858-26.025-38.241-35.157zm8.567 62.526l-.056-.414 30.311-26.422 101.019 92.871-.501 27.254-37.529 5.712-93.244-99.001zm132.045 66.744l-.486 26.426 25.079-3.817-24.593-22.609zm25.227 23.306l-25.728 3.915-.755 41.05-.784-.014.753-40.916-36.86 5.609 35.869 38.084 48.859-.911-21.354-46.817zm22.208 46.801l-20.89-45.801 53.382 45.194-32.492.607zm.355.777l33.043-.617 65.159 55.166-63.371 9.02-8.85-6.608-25.981-56.961zm-.855.016l25.529 55.969-73.755-55.069 48.226-.9zm26.206 57.453l-75.699-56.52-60.817 4.876 104.995 63.581 34.712-4.941-3.191-6.996zm1.307.976l2.693 5.905 4.38-.624-7.073-5.281zm3.032 6.648l4.932-.702 60.279 45.008-5.651 1.971-43.205-10.42-16.355-35.857zm-.809.116l16.021 35.124-50.013-30.286 33.992-4.838zm-79.96-64.988l-35.8-38.011-76.968 11.713 51.534 31.207 61.234-4.909zM192.901 151.115l92.118 97.806-77.108 11.735-15.01-109.541zm352.792 121.252l-194.13-32.351 54.313 45.983 143.795-2.683-3.978-10.949zM191.975 150.132l-.089-.094-46.073 40.16 26.156 54.224 35.123 16.029-15.117-110.319zm-46.775 40.6l25.653 53.18-56.882-25.959 31.229-27.221zm-.354-.732l-31.658 27.596-31-14.148L85.5 66.972 144.846 190zm62.321 71.347l-34.665-15.82 25.099 52.031 7.206-.578 2.36-35.633zM92.588 11.951l90.671 73.481 3.188-65.898-93.859-7.583zm-6.432-4.304L70.94-23.975 57.173 5.863l2.487 2.64 26.423 2.135.073-2.99zm-.092 3.777l-25.602-2.07L85.47 35.908l.594-24.483zm-.621 25.598L59.296 9.261l-.795-.065 26.294 54.51.648-26.684zm.099 28.232l.665-27.42 105.141 111.632-45.889 40L85.542 65.254zm44.597-169.18l52.42 3.282-39.547-36.528-12.873 33.246zm13.178-34.033l40.482 37.393 8.433.528 9.082-187.707-57.997 149.786zm48.579 44.873l-7.185-6.637 7.484.468-.299 6.168zm.752.694l.329-6.814 83.655 5.239 28.448 70.82-19.11 16.955-93.322-86.2zM305.703-23.7l-28.204-70.213 100.26 6.278L305.703-23.7zm-197.247-81.584l20.862 1.306 13.075-33.767-13.294-12.279-20.643 44.74zm91.606 485.771l43.349-6.171-41.011-29.123-2.338 35.294zm45.406-5.672l80.619 57.25-58.257-60.433-22.362 3.183zm21.691-3.879l-22.62 3.219-42.078-29.881 2.507-37.852 62.191 64.514zm97.997-13.95l-97.04 13.813-63.078-65.434.507-7.658 54.505-4.37 105.106 63.649zm43.118-5.346l63.069-8.978 6.168 40.846-9.316 12.872-59.921-44.74zm60.927 44.687l8.477-11.712 1.438 9.528-9.915 2.184zm-.177.842l10.21-2.249 1.263 8.364-7.566-1.825-3.907-4.29zm4.849 5.324l6.75 1.628 1.047 6.934-7.797-8.562zm-269.571-97.891l.453-6.831-6.533.524 6.08 6.307zm54.601-11.959l-53.306 4.274 2.328-35.145 50.978 30.871zm619.613-25.278l22.263 15.975-33.577-.019 11.314-15.956zm22.134 16.759l-34.004-.019-27.796 39.203 61.8-39.184zm-22.772-17.217l-11.637 16.413-54.828-.03 48.961-28.943 17.504 12.56zm-12.192 17.197l-55.599-.031-48.925 28.921 44.811 31.16 31.131-19.738 28.582-40.312zm-6.008-30.256l-49.805 29.441-59.904-.034 46.68-74.634 63.029 45.227zm-51.13 30.224l-59.069-.033-9.08 14.517 20.055 13.945 48.094-28.429zm-12.537-75.909l-46.967 75.092-30.673-.017-9.016-6.27-.447.644 8.089 5.625-13.199-.007 6.384-8.628-.315-.233.365.144 39.319-99.687 46.46 33.337zm-47.457 75.876l-29.054-.017 20.255 14.085 8.799-14.068zm-45.336-.026l14.907.009 21.214 14.751-26.01 41.585-5.883 3.478-57.944 12.766 19.354-26.154 31.776 12.411.285-.731-31.578-12.333 33.879-45.782zm5.835-9.204l-6.23 8.42-87.17-.049-.444-2.887 93.844-5.484zM567.472-416.017l-3.195 1.109 2.693-.331.502-.778zm-6.718 2.332l5.663-.696-43.837 67.99-66.997-30.797 105.171-36.497zm-3.702.454l-102.498 35.57-39.458-18.138 141.956-17.432zm-103.567 35.942l-38.728-17.802L431.5-369.66l21.985-7.629zm-21.54 8.305l53.15 80.731 37.056-57.473-67.638-31.091-22.568 7.833zm-.765.265l53.451 81.186-46.191 71.641.329.212v.001l-.353-.165-2.043 4.366-18.446-152.642 13.253-4.599zm5.371 158.712l2.413-5.157 30.17 13.466-25.313 38.291-1.803-1.365-5.467-45.235zm3.301-5.619l29.72 13.265 19.676-29.764-49.396 16.499zm4.487 52.856l25.52-38.604 85.883 38.332 5.55 62.732-77.613 78.44-35.729-22.115-3.533-118.787-.078.002zM570.144-9.164l-8.039-90.853 39.416-39.836.12-.014-.012-.095 1.974-1.995-.28-.276.16-.359-2.287-1.021-8.013-67.592 82.519-62.793-35.368 88.734-36.764 43.693.6.505 35.242-41.884-15.278 38.331-19.79 3.828.149.77 19.296-3.733-53.645 134.59zm-.67 1.328l-8.091-91.45-77.055 77.875 25.745 19.807 59.401-6.232zM509.843-.791l-38.259 4.014-13.373 26.118 34.127 93.909 72.31-58.84 1.479-21.898L509.843-.791zm-.902-.694l-36.93 3.875 11.859-23.163 25.071 19.288zm57.249 43.056L510.975-.909l58.5-6.139-3.285 48.62zm.684 1.515l-1.395 20.648L579.2 52.569l-12.326-9.483zm.063-.94l12.847 9.883 28.365-31.346-37.908-27.439-3.304 48.902zm3.981-49.38l37.76 27.333 33.765-37.314-71.525 9.981zm55.843 40.422L609.317 20.56l34.336-37.944 165.568-23.104-182.46 73.675zm-.859.346l-17.114-12.388-27.519 30.41 44.633-18.022zm186.315-75.23L644.473-18.29l53.772-59.422 130.748 16.549 3.099 11.441-19.875 8.026zm16.555-20.286l-129.45-16.385 108.557-60.762 20.893 77.147zm.841.107l-21.029-77.649 12.456-6.972 32.835 87.692-24.262-3.071zm.221.818l23.092 2.923-20.102 8.117-2.99-11.04zM570.512-7.969l72.751-10.152 54.47-60.194 19.69-83.55-92.72 17.934L570.512-7.969zm-8.497-93.071l38.791-39.205-.336-2.834-43.909-19.597 5.454 61.636zm40.633-41.067l-1.137 1.149-.207-1.748 1.344.599zm-154.67 99.062l35.245 21.816L471.08 2.487l-21.681 2.275-1.421-47.807zm-.8-.495l1.44 48.419-120.334 25.33-.095-.008.006-.322-.784-.014-.005.272-74.422-6.013 32.975-29.258 36.951 34.131.532-.576-36.893-34.078 18.841-16.718 20.548 51.153.728-.292-20.653-51.414 72.065-63.94-.055.116.354.166-.206.332 69.007 42.714zM327.35 30.92l-75.178-6.075-67.952 60.293-.153-.173-.053 1.096 38.972 35.828 104.364-90.97zM187.267 18.813l64.635 5.223L285.381-5.67l-92.783-85.7-5.331 110.185zm-.038.784l63.86 5.16-66.985 59.434 3.125-64.594zM447.151-44.48l-68.27-42.257 30.155-64.457 32.429-11.619.32 2.654.39-.047.327.216 1.161-1.757 3.488 117.268zm2.408 50.014l21.094-2.213-12.808 25.014-8.286-22.801zm-.792.115l8.591 23.64-107.251 209.468-25.326-23.283 3.389-184.23.32-.278L448.767 5.649zm-97.348 232.267L457.723 30.294l33.971 93.479-140.275 114.143zm118.879-439.953l85.365 38.101-1.606-18.143-38.691-58.77-24.912 8.321-20.156 30.491zm86.184 38.467l43.881 19.585-7.904-66.669-37.61 28.62 1.633 18.464zm-120.736-46.566l-18.577-153.721-22.383 7.768-54.457 114.356 81.383 61.594 14.034-29.997zm-13.394 30.48l13.571-29.009 5.225 43.235-18.796-14.226zm-.979.243l-81.388-61.597-33.134 69.579 37.067 42.736 64.547-23.127 12.908-27.591zm-11.868 27.218l12.507-26.734 19.267 14.582.089.736-31.863 11.416zm-1.509 1.374l-63.527 22.761 34.351 39.605 29.176-62.366zm22.74-218.574l-16.47-25.016 3.565 29.495 12.905-4.479zm-13.663 4.742l-3.686-30.498-18.128 38.068 21.814-7.57zm-23.328 8.925L339.69-242.216l-85.837-64.965 139.892-48.547zm-140.783 48.856l86.384 65.379-33.056 69.415-68.787-79.307-11.785-46.033 27.244-9.454zm21.795 201.011l31.165-65.444-67.984-78.382 36.819 143.826zm-38.402-146.848l-32.268-37.202 20.888-7.249 11.38 44.451zm15.855-54.732l-26.687 9.261-9.353-36.537 36.04 27.276zm.891-.309l-37.243-28.187-.091-.354 196.814-58.991-18.362 38.56-141.118 48.972zm633.442 112.373l-26.198-47.637 56.284 41.818-30.086 5.819zm-98.039-101.989l26.243 19.497 10.292-26.875-36.535 7.378zm-61.512 10.329l27.684-32.901-7.078 30.032-19.678 3.974-.928-1.105zm1.502 1.789l18.906-3.818-4.848 20.572-14.058-16.754zm19.752-3.989l-5.065 21.493 43.589 51.945 3.482 1.89 2.804-7.322-26.824-71.638-17.986 3.632zm-20.628 4.166l14.71 17.529-5.77 24.484-31.968-17.354 20.281-24.104 2.747-.555zm15.339 18.279l-5.685 24.122 47.618 25.85-41.933-49.972zm-38.883 6.992l32.297 17.533-18.751 79.565-92.572 17.906 15.968-40.06 63.058-74.944zm33.011 17.921l-18.621 79.014 78.856-15.253-9.552-35.272-1.503-1.791-49.18-26.698zM698.677-78.905l108.99-61.005-10.142-37.449-79.258 15.33-19.59 83.124zm122.085-68.334l-12.389 6.935-10.076-37.205 10.379-2.007 12.086 32.277zm.97.356l33.059 88.29 14.255 8.967 32.035-4.47 6.097-55.622-59.53-51.671-25.916 14.506zm25.287-15.053l-25.565 14.31-11.997-32.041 14.011-2.711 23.551 20.442zm1.356.139l58.907 51.131 4.147-37.832-20.433-37.155-42.621 23.856zm42.243-24.543l-42.872 23.997-23.3-20.224 61.685-11.931 4.487 8.158zm1.062.304l19.898 36.182 5.526-50.412-25.424 14.23zm23.581-14.097l-23.959 13.41-4.362-7.932 28.321-5.478zM600.714-400.741l-28.226-14.385 41.07-5.043-12.844 19.428zm-29.617-14.214l29.182 14.872-25.004 37.824-6.218-52.446 2.04-.25zm-2.202-1.123l.953.486-.883.108-.07-.594zm-13.662 85.559l24.342 11.189 2.857 24.099-8.546 34.009-58.197 19.439-9.539-14.489 49.083-74.247zm25.177 11.573l2.558 21.579 4.596-18.29-7.154-3.289zm-5.641 57.429l7.922-31.528 3.294 27.782-11.216 3.746zm8.458-33.663l3.517 29.664 63.65-21.26-62.105-28.548-5.062 20.144zm-8.685 34.566l11.537-3.854 6.273 52.911-37.261 28.353 19.451-77.41zm12.297-4.107l6.237 52.612 82.757-62.974-24.397-11.214-64.597 21.576zm-18.681-150.912l.029.245-.203.025.174-.27zm-82.591 128.096l37.304-57.858 31.641 14.545-48.831 73.866-20.114-30.553zm-45.865 71.134l45.4-70.414 20.109 30.544-15.262 23.087-50.247 16.783zm359.688 12.087l-5.919-15.807-2.524 6.592.936.508-.374.689-.845-.459-.26.678 8.986 7.799zm-89.253-101.588l-57.614 19.243 24.115 11.085 47.81-9.655 1.52-1.807-15.831-18.866zm-194.002 64.798l57.524-19.213-19.384 77.144-38.14-57.931zM505.68-255.56l9.24 14.034-23.765 7.937 14.525-21.971zm248.557-65.074l-43.301 14.463 15.545 18.524 27.756-32.987zm45.729 117.857l8.431 22.516-10.305 1.993-9.254-34.168 11.128 9.659zm9.212 22.365l-7.972-21.289 21.51 18.67-13.538 2.619zm-167.24-6.758l61.433-73.012-26.581-14.429-34.852 87.441zm61.948-73.624l19.751-23.473-45.911 9.271 26.16 14.202zm23.158-24.961l-1.362.275.798-.948.564.673zm185.043 138.453l-4.085 37.261 47.024 40.816-42.939-78.077zm-4.189 38.209l-6.016 54.885 59.657-8.325-3.709-3.22 1.31 2.383-.687.377-2.335-4.245-48.22-41.855zm-37.822 60.115l30.917-4.314-2.437 22.229-28.48-17.915zm31.718-4.426l-2.5 22.805 18.853 11.86 43.193-42.974-59.546 8.309zm-32.923 4.594l29.59 18.614-3.82 34.844-16.66 16.575-19.901-68.527 10.791-1.506zm30.328 19.078l-3.672 33.499 22.049-21.939-18.377-11.56zM878.23 22.08l16.275-16.19-5.748 52.44-10.527-36.25zm-42.322 304.021l-29.237 18.538 10.779 7.495 18.458-26.033zm-75.488-12.67l44.835 31.177-103.898 65.877 5.894-58.931 6.641-10.619 46.528-27.504zm-45.624 26.059l44.916-26.551-19.729-13.719-25.187 40.27zm81.631-131.994l-46.579-33.423 15.602-39.557 54.477 35.409-23.5 37.571zm23.915-38.236l-54.461-35.399 91.322-90.86 12.724 46.982-49.585 79.277zm68.164-108.983l-10.909-37.566-19.754 19.654 12.65 46.712 18.013-28.8zM712.425 341.803l-4.998 7.992.535-5.354 4.463-2.638zm-244.262 55.584l3.409 3.744-8.362-2.016 4.953-1.728zm181.879 45.635l50.474-32.003 5.797-57.965-56.271 89.968zm155.911-97.927l-104.695 66.382-5.722 57.209 121.392-115.959-10.975-7.632zm-56.762-171.493l15.23-38.613-35.035 24.402 19.805 14.211zm-20.488-13.736l20.191 14.488-39.299 99.638-94.505 5.522-5.622-36.6 119.235-83.048zm-119.368 82.185l118.693-82.67L580.36 53.422l28.975 188.629zM579.548 53.297l29.07 189.253-45.772 31.881-11.471-1.912 14.032-207.715 14.141-11.507zm29.203 190.116l5.552 36.147-15.309.895-35.041-5.84 44.798-31.202zm5.672 36.926l-11.939.697 12.363 2.061-.424-2.758zm-51.391-5.082l32.43 5.404-43.87 2.563 11.44-7.967zm-1.107-.185l-10.603-1.767-.649 9.604 11.252-7.837zm2.65-209.592l-13.977 206.91-4.325-.721-53.652-147.639 71.954-58.55zm-14.03 207.696l-3.964-.661 3.38 9.302.584-8.641zm-58.568-148.622l53.408 146.967-194.242-32.37 140.834-114.597zM324.01 214.765l-100.443-92.342 103.806-90.484-3.363 182.826zm404.7-55.859l35.875-24.987-137.933-99.842-46.014 18.58L728.71 158.906zM961.823-61.088L949.892 1.231l-31.064-19.542 42.995-42.777zm-84.475 82.942l-19.741 19.64-23.155-85.501 22.844-3.188 20.052 69.049zm-19.489-69.92l9.982-1.392-12.708-7.994 2.726 9.387zm-25.561-.893l-16.881 6.816 18.045-2.518-1.164-4.298zm1.371 5.061l-21.248 2.965-184.91 74.664 137.71 99.681 91.746-91.281-23.298-86.029zm20.545-13.91l-21.183 8.553 1.214 4.485 22.83-3.186-2.861-9.852zm-64.44-154.854l.195-.508-1.824-.99.259.309 1.37 1.189zM56.855 8.277l-.055-.8.4.828-.345-.028zm1.25.1l-.375-.78.764.812-.388-.031zM449.02 5.196v.001h.001-.001zm227.57-280.362h-.001l.001-.002v.002zM442.148-163.689l.288 2.377.952-1.44-1.24-.937z" fill="url(#paint0_linear_495_2717)"/><path opacity=".1" d="M204.992 299.887l213.246 88.787-75.591 57.712-143.171-65.484 5.516-81.015z" fill="url(#paint1_linear_495_2717)" stroke="#67E3B0" stroke-opacity=".6" stroke-width=".784" stroke-miterlimit="10"/><path opacity=".1" d="M648.797 444.277l168.75-91.597-122.505 117.022-149.643 17.276 103.398-42.701z" fill="url(#paint2_linear_495_2717)" stroke="#67E3B0" stroke-opacity=".6" stroke-width=".784" stroke-miterlimit="10"/><path opacity=".1" d="M73.206 252.966L56.571 9.434l271.739 21.17L148.136 187.58l-74.93 65.385z" fill="url(#paint3_linear_495_2717)" stroke="#67E3B0" stroke-opacity=".6" stroke-width=".784" stroke-miterlimit="10"/><defs><linearGradient id="paint0_linear_495_2717" x1="1049.9" y1="-86.87" x2="186.46" y2="741.433" gradientUnits="userSpaceOnUse"><stop offset=".213" stop-color="#3A9762"/><stop offset=".478" stop-color="#0A0A23"/><stop offset=".853" stop-color="#327A51"/></linearGradient><linearGradient id="paint1_linear_495_2717" x1="316.898" y1="447.636" x2="288.658" y2="276.914" gradientUnits="userSpaceOnUse"><stop offset=".169" stop-color="#0A0A23"/><stop offset=".417" stop-color="#377B54"/><stop offset=".656" stop-color="#4FA775"/><stop offset=".945" stop-color="#38D996"/></linearGradient><linearGradient id="paint2_linear_495_2717" x1="683.969" y1="535.778" x2="575.221" y2="288.951" gradientUnits="userSpaceOnUse"><stop offset=".169" stop-color="#0A0A23"/><stop offset=".417" stop-color="#377B54"/><stop offset=".656" stop-color="#4FA775"/><stop offset=".945" stop-color="#38D996"/></linearGradient><linearGradient id="paint3_linear_495_2717" x1="160.209" y1="294.589" x2="-11.545" y2="-11.338" gradientUnits="userSpaceOnUse"><stop offset=".169" stop-color="#0A0A23"/><stop offset=".417" stop-color="#377B54"/><stop offset=".656" stop-color="#4FA775"/><stop offset=".945" stop-color="#38D996"/></linearGradient></defs></svg>