<svg width="735" height="484" fill="none" xmlns="http://www.w3.org/2000/svg"><path fill-rule="evenodd" clip-rule="evenodd" d="M235.499-347.1l33.067 10.949 16.237-31.731-12.205-52.332-.832.198-36.267 72.916zm33.82 11.198l15.76-30.798 9.103 39.03-24.863-8.232zm16.313-31.878l9.422 40.399 7.791 2.579 11.08-81.544-7.175-2.702-21.118 41.268zm21.477-41.971l6.924 2.608 2.985-21.972-9.909 19.364zm7.569 3.689l-11.075 81.511 65.821 21.793 55.6-25.735-62.439-59.526-47.907-18.043zm46.455 16.658l-46.347-17.455 3.215-23.664 43.132 41.119zm3.331 2.093l61.325 58.464 42.13-19.5-103.455-38.964zm105.395 38.828l-.173.088-.56-.327-.195.335.138-.365-106.058-39.944-43.525-41.495 219.885 90.053-35.818 11.489-33.559-19.567-.135-.267zm-4.397 32.052l3.786-31.312.151.088 13.071 25.769-17.008 5.455zm17.764-5.698l-12.578-24.798 31.901 18.6-19.323 6.198zm.359.708l19.875-6.375 29.042 16.933-14.772 56.76-34.145-67.318zm34.68 68.374l14.941-57.406 47.055 27.436 32.162 45.632-60.327 18.807-25.141-17.338-8.69-17.131zm15.146-58.194l45.765 26.683-38.495-54.618-7.27 27.935zm9.534-26.084l37.859 53.716 59.934 34.944-97.793-88.66zm-2.332-3.152l-222.749-91.225-.148.36-.09-.379-42.214 10.032-2.775-1.045-.138.367-.001.001-.001-.001-.169-.354-7.369 3.516-143.667 34.142.281-.811-.741-.256-.483 1.392-189.681 80.719-.288-.761-.734.277.3.792-.278.118.154.36v.001l-.372-.124-22.213 66.771L-226.74-58.074l-.716.035.038.783.067-.003-.59.786.314.236-.003.001-.375.105 50.921 181.739 31.312 172.609.386-.07.001.001v.001l-.191.343 83.947 46.556 55.79 66.517.3-.253-.195.34L119.782 483.6l.194-.339.036.389 147.514-13.493 88.52 9.26.041-.39.094.381 140.562-34.444-.092-.375.296.247 108.771-129.887-.302-.252.001-.001.344.19 16.572-29.932 59.618-47.839-.245-.304.383.074 52.318-268.203-.385-.076.171-.354-35.463-17.147 5.069-64.831-.389-.031-.001-.001.222-.321-6.505-4.485-53.201-75.486-.103-52.591-.39.001.197-.339-.605-.353.158-.175-102.304-92.75-.043-.062-.014.01-.159-.144.002-.003-.009-.004-.031-.028-.011.011zm-685.754 637.779l-29.682-163.627 32.127 114.663.376-.105-.3.251 20.194 24.077-22.715 24.741zm-31.178-171.87l33.245 118.651-11.634-133.6-33.235-52.942-.688.02 12.312 67.871zm-50.197-179.156l47.937 171.089-10.844-59.78-.657.021-.012-.392-.371-.124.615-1.848-.202-1.11.387-.07.003-.002.25-.295.041.035 10.478-31.495-47.625-76.029zm925.18 5.668l34.491 16.677-37.338 19.746 2.847-36.423zm34.816 17.392l-37.736 19.956-14.839 189.79-.388-.031-.001.001.342.19-6.578 11.882 7.449 43.51L733.48-30.664zm-52.301 266.729l-7.507-43.844-16.741 30.24 24.248 13.604zm-7.111-46.178l5.214-9.416-6.047 4.549.833 4.867zm-1.538-4.337l.931 5.435-17.214 31.092-18.485-10.37 34.768-26.157zm.556-1.4l6.688-5.031-8.259-4.146 1.571 9.177zm-2.441-9.614l1.736 10.145-35.366 26.607-68-38.151 19.203-39.978 82.427 41.377zm.706-.523l8.423 4.228-13.607-34.507 5.184 30.279zm-6.59-33.845l5.719 33.408-81.923-41.124 40.178-83.645 36.026 91.361zm.759-.212l14.736 37.37 14.668-187.6-50.547 26.731 21.143 123.499zM643.763 17.521l20.351 118.87-34.916-88.547 14.565-30.324zm54.143-65.943l-2.91 37.223-50.663 26.792-.108-55.056 20.203-25.147 33.478 16.188zM121.059 482.767l142.451-13.03-116.114-12.146-26.337 25.176zm150.488-12.978l83.357 8.72-23.984-21.077-36.987 10.304-.105-.378.035.39-22.316 2.041zm21.781-2.779l-25.797 2.359-119.391-12.488 8.215-7.853 100.76-48.26 10.891 1.374 10.45 9.184 14.872 55.684zM-178.57 21.34l-48.583-77.557.819-1.091 75.145-3.655-27.381 82.303zm27.646-83.1l-74.798 3.637 132.178-176.115-57.38 172.477zm16.654-47.577l42.21-126.879 13.374-17.818-41.055 155.393-14.529-10.696zm64.31-193.309l-21.319 64.084 13.171-17.55.314.236.002.001.389-.025L-65.46-65.917l83.358-4.054-3.506-6.524.69-.371 3.684 6.853 100.717-4.898-38.292-35.33-66.068 32.337-.345-.704 65.794-32.204-41.102-37.922-23.957 69.197-.37-.128-.367.138-53.48-141.335-37.577-34.669-.175.083-.21-.438-1.205-1.112.532-.576 1.2 1.106 20.297-9.684-13.72-36.257-.399-.237zm189.877 785.419l26.457-25.289-6.409-.67.041-.388-.19.342-7.056-3.913 7.136 5.92-.5.604-10.339-8.578-90.833-50.375-42.73 11.026 124.423 71.321zm174.187-15.899l36.112-10.061-50.7-44.555 14.588 54.616zm37.717-9.694l24.166 21.237 19.368-33.365-43.534 12.128zm44.098-13.099l-44.801 12.481-51.966-45.668-2.03-7.601 114.115 14.399-15.318 26.389zm.518.67l-19.549 33.676 139.366-34.151-.66-57.626-47.479 38.099-.242-.301.103.372-71.539 19.931zm69.453-20.163L377 443.78l15.082-25.982 53.808 6.79zm-291.81 25.529l-6.963 6.657-5.691-.596 12.654-6.061zm4.098-2.831l97.5-46.699-42.974-5.423-54.526 52.122zm53.704-52.42l-55.979 53.509-15.885 7.608-10.517-5.832-67.366-55.895 95.288-24.588 54.459 25.198zM-59.715 346.11l53.732 64.064-1.582-35.143-52.15-28.921zm-1.406-1.677l-26.876-32.043 70.816 17.075 7.857 6.52 1.717 38.127-53.514-29.679zm-28.159-32.352l26.245 31.291-79.635-44.165 53.39 12.874zm.435-.702l71 17.119-30.848-49.138-60.644-19.896-12.046 13.12 32.538 38.795zm-33.073-38.212l31.79 37.903-54.519-13.146 22.729-24.757zm.027-1.188l11.736-12.783-30.982-10.164 19.246 22.947zM-178.03 22.202l27.681-83.206 20.934-1.018-30.072 113.826-18.543-29.602zm24.01 33.52l-4.867-3.12 30.293-114.663 53.671-2.61 9.182 6.76 6.961 110.726-95.24 2.906zm-4.86-2.184l3.473 2.225-3.27.1-.203-2.325zm104.386 66.898l-99.745-63.924-4.37.134 2.189 25.144 117.335 99.676-15.408-61.03zm.99.715l15.117 59.876L-11.6 151.85l-41.904-30.699zm15.449 61.19l-.102-.405 27.194-29.62L99.732 233.41l2.524 27.142-36.663 9.838-103.648-88.049zm138.632 51.689l2.448 26.316 24.501-6.574-26.949-19.742zm27.656 20.364l-25.135 6.744 3.803 40.881-.781.072-3.79-40.747-36.01 9.663 39.871 33.871 48.456-6.324-26.414-44.16zm27.262 44.049l32.224-4.206-58.065-38.995 25.841 43.201zm.438.733l32.771-4.277 70.875 47.599-61.979 15.993-9.529-5.586-32.138-53.729zm-.847.111l31.578 52.793-79.407-46.55 47.829-6.243zm32.415 54.193l-81.5-47.777L46.1 317.294l111.399 51.545 33.949-8.761-3.947-6.598zm1.407.824l3.332 5.57 4.283-1.106-7.615-4.464zm2.96 6.476l-33.246 8.578 53.064 24.553-19.818-33.131zm21.022 33.617l-20.231-33.822 4.824-1.244 64.899 38.045-5.398 2.585-44.094-5.564zM-37.724 183.651l102.397 86.986-75.332 20.214-27.065-107.2zm103.123 87.603l-75.194 20.177 54.678 25.3 60.311-11.671-39.795-33.806zm260.939-6.224l-196.52-10.622 59.078 39.675 142.611-18.614-5.169-10.439zm5.036 11.247l-141.492 18.468 70.661 47.455 48.436-26.382 22.395-39.541zm-21.823 40.122l-37.808 66.755 2.679 10.03 146.473-49.843-15.583-47.578-38.821-10.377-56.94 31.013zm-1.303.71l-36.794 64.964-10.474-39.218 47.268-25.746zm57.143-32.017l-55.109 30.016 22.012-38.863 33.097 8.847zm1-.545l-32.459-8.676 46.321-7.927 15.12.817-28.982 15.786zm1.099.294l29.06-15.828 8.471 25.86-37.531-10.032zM-38.754 182.776l-.098-.083-41.336 45.022 32.009 50.988 36.683 12.035-27.258-107.962zm-41.984 45.538l31.393 50.007-59.41-19.491 28.017-30.516zm-.432-.689l-28.403 30.937-32.378-10.623-11.843-136.001 72.624 115.687zm69.849 63.996l-36.206-11.878 30.714 48.926 7.098-1.374-1.606-35.674zM-152.852 56.47l98.26 62.972-4.139-65.844-94.121 2.872zm-6.87-3.564l-18.629-29.74-10.373 31.181 2.764 2.349 26.498-.809-.26-2.98zm.328 3.764l-25.674.783 27.798 23.615-2.124-24.398zm2.221 25.51l-29.064-24.691-.798.024 32.178 51.257-2.316-26.59zm3.23 28.046l-2.38-27.325 116.873 99.284-41.17 44.842-73.323-116.801zm25.559-173.083l52.46-2.55-43.353-31.919-9.107 34.47zm9.322-35.284l44.38 32.673 8.44-.41-11.792-187.557-41.028 155.294zm53.256 39.208l-7.876-5.799 7.489-.364.387 6.163zm.824.607l-.428-6.808 83.72-4.072L54.436-1.978l-17.111 18.97-102.307-75.318zM54.994-2.596L19.178-69.248l100.337-4.88-64.52 71.532zm-205.078-59.206l20.879-1.015 9.249-35.008-14.574-10.73-15.554 46.754zM-5.169 410.814l42.397-10.94-43.988-24.395 1.59 35.335zm44.497-10.672l86.47 47.956-64.6-53.599-21.87 5.643zm21.126-6.261l-22.123 5.709-45.133-25.031-1.706-37.897 68.962 57.219zm95.846-24.732l-94.91 24.49-69.946-58.035-.345-7.666 53.684-10.388L156.3 369.148zm42.259-10.095l61.684-15.917 10.66 39.91-7.831 13.826-64.513-37.819zm65.507 37.655l7.125-12.58 2.487 9.309-9.612 3.271zm10.559-2.765l146.515-49.856 4.625 14.123-34.1 58.745-114.762-14.48-2.278-8.532zm147.257-50.109l4.411 13.467 10.827-18.652-15.238 5.185zm-29.372 73.228l33.582-57.854 21.214 64.768-54.796-6.914zm34.11-58.762l21.319 65.089 46.957-97.757-.076-6.618-56.57 19.25-11.63 20.036zm-20.404-62.296l15.422 47.085 16.081-5.472 16.679-28.733-48.182-12.88zm48.59 12.177l-48.881-13.066-8.626-26.335 85.915-9.539-28.408 48.94zm-190.822 89.383l9.897-3.368 2.182 8.173-7.721-.975-4.358-3.83zm5.408 4.753l6.89.87 1.81 6.775-8.7-7.645zM-9.371 334.926l-.308-6.839-6.434 1.245 6.742 5.594zm52.937-17.94l-52.503 10.159-1.584-35.186 54.087 25.027zm612.985-93.839l23.897 13.408-33.371 3.705 9.474-17.113zm23.857 14.201l-33.797 3.752-23.277 42.045 57.074-45.797zm-24.541-14.585l-9.745 17.603-54.494 6.05 45.45-34.194 18.789 10.541zm-10.211 18.443l-55.258 6.135-45.416 34.168 47.99 25.999 28.749-23.069 23.935-43.233zm-9.325-29.403l-46.233 34.783-59.539 6.61 38.115-79.351 67.657 37.958zm-47.463 35.708l-58.709 6.518-7.413 15.434 21.478 11.636 44.644-33.588zm-20.879-74.05l-38.349 79.837-30.486 3.385-9.655-5.231-.373.689 8.662 4.693-13.115 1.456 5.388-9.282-.339-.196.379.102 28.02-103.431 49.868 27.978zm-38.749 80.67l-28.877 3.206 21.692 11.752 7.185-14.958zm-45.057 5.003l14.814-1.645 22.718 12.308-21.237 44.213-5.462 4.11-56.167 19.112 16.334-28.139 32.957 8.81.202-.758-32.751-8.754 28.592-49.257zm4.779-9.795l-5.258 9.059-86.638 9.619-.761-2.821 92.657-15.857zM271.64-421.523l-3.053 1.456 2.64-.627.413-.829zm-6.419 3.062l5.552-1.319-36.026 72.431-70-23.176 100.474-47.936zm-3.628.862l-97.921 46.718-41.226-13.65 139.147-33.068zm-98.943 47.205l-40.463-13.397 19.46 23.418 21.003-10.021zm-20.486 10.643l61.776 74.339 30.454-61.228-70.669-23.398-21.561 10.287zm-.73.348l62.125 74.758-37.961 76.322.35.174.001.001-.37-.125-1.545 4.566-35.262-149.655 12.662-6.041zm22.939 157.138l1.826-5.393 31.477 10.037-20.91 40.862-1.943-1.156-10.45-44.35zm2.658-5.95l31.007 9.887 16.254-31.763-47.261 21.876zm10.321 52.032l21.082-41.196 89.603 28.57 12.474 61.73-68.435 86.565-37.962-18.017-16.685-117.663-.077.011zM319.416-17.477l-18.065-89.401 34.755-43.962.117-.027-.022-.093 1.74-2.201-.308-.244.119-.374-2.386-.761-15.46-66.286 75.046-71.558-25.309 92.109-31.691 47.501.652.435 30.379-45.534-10.932 39.788-19.246 6 .233.749 18.766-5.85-38.388 139.71zm-.518 1.394l-18.184-89.989-67.942 85.941L260.554-3.3l58.344-12.782zM260.416-2.468l-37.578 8.232-10.394 27.44 44.331 89.545 65.338-66.495-.958-21.928-60.739-36.794zm-.973-.59L223.17 4.89l9.217-24.336 27.056 16.39zm61.671 36.442L261.527-2.712l57.459-12.587 2.128 48.683zm.847 1.43l.904 20.675 12.397-12.617-13.301-8.058zm-.041-.942l13.863 8.398 24.714-34.298-40.717-23.066 2.14 48.966zm-1.521-49.517l40.559 22.977 29.419-40.829-69.978 17.852zm59.98 33.979L361.644 7.721l29.917-41.52L553.542-75.12 380.379 18.334zm-.814.44L361.183 8.36l-23.975 33.272 42.357-22.86zm176.82-95.429L392.275-34.79l46.85-65.02 131.774 1.948 4.349 11.027-18.863 10.18zm14.203-21.996l-130.469-1.928 101.149-72.427 29.32 74.355zm.848.012l-29.51-74.837 11.605-8.311 42.358 83.51-24.453-.362zm.311.79l23.273.343-19.077 10.296-4.196-10.64zM319.914-16.332l71.177-18.157 47.458-65.863 10.303-85.22-90.159 28.107-38.779 141.133zm-18.766-91.554l34.204-43.265-.648-2.779-45.812-14.607 12.256 60.651zm35.828-45.319l-1.002 1.268-.4-1.715 1.402.447zM194.246-37.601l37.447 17.773-9.438 24.917-21.294 4.665-6.715-47.355zm-.849-.403l6.801 47.961L83.414 48.475l-.094.003-.03-.32-.78.073.024.271-74.63 2.278 29.527-32.735L77.94 47.868l.465-.632L37.959 17.46 54.831-1.244l26.094 48.559.69-.372L55.39-1.863 119.917-73.4l-.042.122.371.125-.168.353 73.319 34.797zM82.566 49.286l-75.389 2.3-60.846 67.457-.171-.154.069 1.094 42.705 31.286L82.566 49.286zM-57.997 52.79L6.82 50.813l29.978-33.235-101.715-74.883 6.922 110.096zm.05.783L6.09 51.62l-59.98 66.496-4.058-64.542zm251.211-92.508L120.73-73.36l22.821-67.404 30.94-15.144.613 2.602.381-.09.349.179.96-1.875 16.471 116.157zm7.941 49.438l20.718-4.54-9.955 26.281-10.763-21.741zm-.775.202l11.159 22.54-83.358 220.071-27.752-20.331L83.416 49.518l.287-.312 116.728-38.5zm-70.989 241.63l82.623-218.13 44.128 89.135-126.751 128.995zm69.354-450.423l89.064 28.399-3.608-17.853-44.97-54.116-23.836 11.032-16.65 32.538zm89.919 28.671l45.782 14.598-15.249-65.38-34.205 32.614 3.672 18.168zm-125.156-32.888l-35.511-150.712-21.383 10.202-41.439 119.69 87.713 52.188 10.62-31.368zm-9.931 31.778l10.27-30.336 9.988 42.389-20.258-12.053zm-.947.349l-87.717-52.191-25.213 72.825 41.578 38.362 61.584-30.143 9.768-28.853zm-8.776 28.367l9.466-27.957 20.765 12.356.17.721-30.401 14.88zm-1.346 1.532l-60.612 29.667 38.531 35.55 22.081-65.217zm-1.642-219.747l-19.142-23.035 6.813 28.917 12.329-5.882zm-13.053 6.228l-7.045-29.901-13.794 39.843 20.839-9.942zm-22.193 11.457L64.538-223.534l-92.513-55.044 133.646-63.762zm-134.497 64.168l93.102 55.395-25.154 72.654-77.158-71.189-16.817-44.442 26.027-12.418zM15.127-80.818l23.715-68.497-76.258-70.358L15.127-80.818zM-39.323-222.5l-36.195-33.394 19.955-9.521 16.24 42.915zm9.687-56.153l-25.495 12.164-13.348-35.275 38.843 23.111zm.85-.406l-40.139-23.882-.13-.343 189.058-80.453-13.972 40.357-134.816 64.321zm641.995 41.43l-31.319-44.438 60.574 35.317-29.255 9.121zm-108.745-90.488l28.243 16.467 7.248-27.851-35.491 11.384zm-59.985 17.089l23.865-35.77-3.703 30.631-19.119 6.133-1.043-.994zm1.689 1.61l18.369-5.892L462-294.325l-15.832-15.094zm19.191-6.156l-2.651 21.925 49.077 46.787 3.672 1.493 1.975-7.588-34.603-68.22-17.47 5.603zm-20.041 6.429l16.565 15.792-3.019 24.971-33.696-13.702 17.484-26.206 2.666-.855zm17.273 16.467l-2.974 24.602 50.186 20.408-47.212-45.01zm-37.867 11.259l34.042 13.843-9.811 81.153-90.015 28.062 11.426-41.583 54.358-81.475zm34.795 14.149l-9.743 80.591 76.675-23.903-13.405-33.995-1.695-1.615-51.832-21.078zm-20.097 166.227l101.55-72.714-14.233-36.094-77.066 24.026-10.251 84.782zm113.75-81.45l-11.543 8.265-14.139-35.857 10.091-3.146 15.591 30.738zm1.004.246l42.647 84.078 15.162 7.331 31.341-7.995-.109-55.954-64.893-44.751-24.148 17.291zm23.462-17.764l-23.821 17.056-15.476-30.513 13.624-4.247 25.673 17.704zm1.363-.012l64.214 44.282-.074-38.059-24.428-34.659-39.712 28.436zm39.261-29.077l-39.947 28.603-25.399-17.515 59.981-18.699 5.365 7.611zm1.089.184l23.787 33.752-.098-50.714-23.689 16.962zm21.872-16.625l-22.324 15.985-5.215-7.4 27.539-8.585zM306.371-410.029l-29.647-11.166 40.256-9.567-10.609 20.733zm-31.011-10.842l30.651 11.545-20.655 40.363-11.995-51.432 1.999-.476zm-2.313-.871l1.001.377-.866.206-.135-.583zm-4.089 86.546l25.433 8.421 5.512 23.633-4.722 34.747-55.682 25.773-11.087-13.341 40.546-79.233zm26.305 8.71l4.936 21.162 2.539-18.687-7.475-2.475zm.763 57.7l4.377-32.212 6.354 27.245-10.731 4.967zm4.673-34.394l6.785 29.091 60.899-28.187-64.888-21.485-2.796 20.581zm-4.799 35.317l11.039-5.11 12.102 51.888-33.887 32.312 10.746-79.09zm11.766-5.446l12.034 51.596 75.262-71.763-25.491-8.44-61.805 28.607zm-35.302-147.909l.056.24-.199.048.143-.288zm-67.876 136.465l30.658-61.638 33.058 10.946-40.337 78.826-23.379-28.134zm-37.692 75.782l37.311-75.014 23.372 28.125-12.608 24.637-48.075 22.252zm358.807-27.878l-7.636-15.053-1.777 6.83.988.402-.295.726-.892-.363-.183.704 9.795 6.754zm-99.969-91.062l-55.122 25.513 25.194 8.342 46.446-14.898 1.309-1.962-17.827-16.995zm-185.616 85.913l55.038-25.475-10.709 78.819-44.329-53.344zm-11.994-13.206l10.739 12.923-22.738 10.524 11.999-23.447zm239.807-92.238l-41.432 19.177 17.504 16.687 23.928-35.864zm58.515 112.058l10.876 21.443-10.021 3.124-12.986-32.932 12.131 8.365zm11.635 21.206l-10.283-20.273 23.447 16.169-13.164 4.104zm-166.955 11.831l52.957-79.374-28.017-11.393-24.94 90.767zm53.401-80.04l17.026-25.52-44.601 14.307 27.575 11.213zm20.244-27.375l-1.32.423.686-1.028.634.605zm199.331 155.515l.108 55.213 58.366-14.889-4.044-2.788 1.566 2.222-.641.451-2.791-3.96-52.564-36.249zM613.08-90.309l30.247-7.716.044 22.363L613.08-90.31zm31.031-7.916l.045 22.942 20.052 9.696 38.16-47.499-58.257 14.861zm-32.21 8.217l31.472 15.217.068 35.053-14.719 18.321-27.378-65.898 10.557-2.693zm32.256 15.597l.066 33.7 19.481-24.249-19.547-9.451zm-15.092 53.82l14.378-17.898.103 52.753-14.481-34.856zm14.862-172.094l.073 37.484 51.26 35.35-51.333-72.834zm-99.634 474.713l48.015 26.012-95.948 76.991-.678-59.225 5.42-11.284 43.191-32.494zm-42.453 30.957l41.694-31.368-21.128-11.446-20.566 42.814zm66.489-140.233l-49.996-28.05 11.118-41.043 58.066 29.148-19.188 39.945zm19.527-40.652l-58.051-29.141L610.487 2.532l17.856 45.28-40.487 84.288zm40.95-85.25l14.707-30.62-15.008-36.125-17.452 21.723 17.753 45.021zM499.74 315.546l-4.078 8.49-.062-5.376 4.14-3.114zm-236.588 82.33l3.803 3.343-8.534-1.077 4.731-2.266zm185.815 25.182l46.616-37.405-.667-58.254-45.949 95.659zm144.089-114.614l-96.685 77.582.659 57.489 107.78-128.703-11.754-6.368zm27.664-22.197l-27 21.665 11.543 6.254 15.457-27.919zm-103.093-141.94l10.854-40.066-32.113 28.138 21.259 11.928zm-21.885-11.38l21.674 12.16-28.006 103.38-93.31 15.969-9.647-35.751 109.289-95.758zm-110.173 95.491l-41.954 36.76-11.612-.628-9.091-207.99 12.777-13.004 49.88 184.862zm.657-.576l-49.715-184.25 158.506 88.928-108.791 95.322zm-.429 1.419l9.527 35.308-15.116 2.587-35.473-1.917 41.062-35.978zm9.732 36.068l-11.789 2.018 12.516.676-.727-2.694zm-51.638.649l32.83 1.775-43.315 7.412 10.485-9.187zm-1.12-.06l-10.734-.58.42 9.616 10.314-9.036zM322.16 57.325l9.056 207.183-4.378-.237-69.695-140.778 65.017-66.168zm9.09 207.97l-4.013-.217 4.392 8.87-.379-8.653zm-341.68-113.56L82.701 50.297l16.934 182.07-110.065-80.632zm266.991-27.65l69.378 140.138-196.634-10.628 127.256-129.51zm239.081 7.887l32.884-28.812L380.37 19.23 336.699 42.8l158.943 89.173zm207.276-244.491l-4.946 63.258-33.04-15.976 37.986-47.282zM628.162-20.72L610.722.989l-32.495-82.407 22.349-5.701 27.586 66.399zM601.04-88.046l9.766-2.492-13.516-6.535 3.75 9.026zm-24.808 1.57l20.104-10.85 3.936 9.475-22.335 5.698-1.705-4.322zm-.695.376l-16.021 8.646 17.655-4.504-1.634-4.142zm1.924 4.878l-20.788 5.303-175.488 94.71L529.1 102.583 610.156 1.692l-32.695-82.914zm-63.834-163.885l1.494 1.03.137-.528-1.925-.782.294.28zM-188.772 56.782l-.143-.79.489.78-.346.01zm1.254-.039l-.46-.733.849.721-.389.012zm388.149-46.516h.001-.001zm-25.558-167.081l.549 2.331.786-1.536-1.335-.795z" fill="url(#paint0_linear_1451_2520)"/><defs><linearGradient id="paint0_linear_1451_2520" x1="787.595" y1="-147.909" x2="21.34" y2="771.039" gradientUnits="userSpaceOnUse"><stop offset=".213" stop-color="#3A9762"/><stop offset=".478" stop-color="#0A0A23"/><stop offset=".853" stop-color="#327A51"/></linearGradient></defs></svg>