<svg width="1164" height="1023" fill="none" xmlns="http://www.w3.org/2000/svg"><path opacity=".4" fill-rule="evenodd" clip-rule="evenodd" d="M999.568 95.112c-32.714 30.239-70.033 64.736-135.752 111.81l-.013.009-.013.008c-144.658 90.638-254.336 135.352-366.273 180.988a12681.807 12681.807 0 00-39.939 16.335C331.209 456.278 196.458 516.4 1.161 650.18l-.601-.804c195.372-133.83 330.19-193.984 456.6-246.017a12739.253 12739.253 0 0139.942-16.337c111.931-45.633 221.531-90.315 366.106-180.901 65.662-47.033 102.943-81.494 135.647-111.724 1.294-1.2 2.584-2.392 3.874-3.58 33.67-31.104 63.43-57.998 116-90.023l.55.832C1066.8 33.6 1037.1 60.44 1003.44 91.533c-1.28 1.18-2.56 2.367-3.851 3.56l-.021.02zm10.842 4.296c-31.566 32.98-67.191 70.203-135.194 118.912l-.012.009-.013.008C731.388 308.44 599.676 363.708 473.82 416.519a15932.465 15932.465 0 00-46.977 19.77c-140.067 59.298-273.721 120.618-409.94 230.08l-.662-.758c136.33-109.552 270.09-170.915 410.176-230.222a15997.721 15997.721 0 0146.968-19.766l.003-.002.01-.003C599.253 362.807 730.886 307.572 874.61 217.52c67.921-48.652 103.495-85.822 135.04-118.784l.47-.488c31.68-33.099 59.44-62 112.03-94.034l.56.832c-52.47 31.965-80.17 60.788-111.84 93.875l-.46.487zM885.472 228.58c68.348-48.956 102.283-88.023 132.258-122.837l1.05-1.219c29.52-34.293 55.5-64.474 107.35-96.057l-.56-.832c-51.98 31.664-78.04 61.941-107.57 96.24l-1.06 1.232c-29.953 34.79-63.828 73.787-132.074 122.672-137.381 86.078-269.105 144.914-392.683 200.111l-.008.003c-21.884 9.775-43.512 19.435-64.87 29.113-141.968 64.322-272.033 129.395-386.015 233.7l.71.718c113.858-104.193 243.799-169.212 385.754-233.53 21.354-9.675 42.98-19.335 64.863-29.109 123.581-55.198 255.38-114.067 392.83-200.189l.013-.008.012-.009zm139.688-115.451c-27.985 36.813-59.93 77.884-128.289 126.849l-.013.009-.013.008c-128.014 80.21-254.66 139.776-372.608 195.251l-.003.001v.001l-.007.003h-.001l-.015.007-.014.007h-.001c-31.1 14.628-61.595 28.971-91.351 43.333-142.639 68.847-268.291 138.132-362.32 241.29l-.771-.656C163.92 615.924 289.725 546.57 432.373 477.719c29.785-14.376 60.304-28.73 91.424-43.367 117.94-55.471 244.513-115.003 372.468-195.175 68.235-48.877 100.11-89.859 128.065-126.638.69-.907 1.38-1.812 2.06-2.714 27.11-35.695 51.28-67.509 102.6-98.77l.56.832c-51.16 31.165-75.24 62.855-102.35 98.545l-1.22 1.614-.82 1.083zM908.265 251.377c64.701-45.875 94.655-88.955 121.555-128.536l1.45-2.134.24-.348c26.22-38.593 50.12-73.783 101.45-105.052l-.55-.833c-51.52 31.381-75.52 66.72-101.74 105.308l-.04.069c-.56.812-1.11 1.626-1.66 2.441-26.88 39.55-56.759 82.512-121.308 128.282-117.994 73.931-237.159 131.142-348.417 184.558-41.232 19.796-81.378 39.07-119.976 58.481-142.723 71.775-264.277 145.414-341.06 254.159l.846.563c76.634-108.533 197.99-182.082 340.7-253.85 38.567-19.395 78.694-38.661 119.915-58.451 111.276-53.424 230.522-110.676 348.572-184.642l.012-.007.011-.008zm130.125-120.015c-24.34 42.149-51.731 87.808-116.447 133.693l-.012.009-.013.008c-132.95 82.813-257.262 142.843-367.561 196.106-43.926 21.212-85.629 41.35-124.769 61.426-137.453 70.504-243.307 140.244-303.147 253.035l-.909-.46c59.988-113.07 166.084-182.926 303.562-253.443 39.174-20.093 80.895-40.24 124.83-61.456l.002-.001.006-.003h.002c110.28-53.254 234.509-113.244 367.406-196.024 64.534-45.759 91.84-91.27 116.16-133.38.7-1.21 1.39-2.417 2.09-3.62 23.49-40.728 45.1-78.206 96.24-109.357l.55.833c-50.92 31.02-72.43 68.31-95.92 109.049-.69 1.192-1.38 2.387-2.07 3.585zM933.341 276.453c64.727-45.893 90.129-93.56 112.469-137.705.73-1.445 1.46-2.886 2.19-4.322 21.45-42.458 41.12-81.405 91.8-112.279l-.55-.832c-50.93 31.02-70.71 70.185-92.15 112.625-.73 1.45-1.47 2.905-2.2 4.363-22.33 44.102-47.639 91.594-112.158 137.345-137.799 82.205-256.677 140.622-358.376 190.598l-.001.001c-53.633 26.355-102.487 50.362-146.82 74.273-128.376 69.239-218.737 137.627-276.947 259.752l.927.424c58.083-121.859 148.233-190.121 276.531-259.318 44.273-23.878 93.1-47.872 146.717-74.221h.001c101.73-49.992 220.704-108.457 358.534-190.683l.017-.01.016-.011zM1053.8 146.702c-20.06 46.426-43.18 96.387-107.922 142.29l-.016.012-.018.01c-106.333 63.015-201.617 111.349-286.167 152.64-21.005 10.257-41.346 20.08-61.028 29.584l-.023.011c-59.542 28.753-113.058 54.595-160.699 80.776C311.165 621.688 226.092 693.7 180.039 829.14l-.969-.323c46.16-135.751 131.462-207.92 258.338-277.646 47.667-26.196 101.216-52.054 160.766-80.81 19.685-9.506 40.026-19.328 61.027-29.584 84.534-41.283 179.786-89.601 286.079-152.591 64.5-45.742 87.54-95.498 107.58-141.877.74-1.715 1.48-3.425 2.21-5.131 19.15-44.43 36.86-85.537 87.6-116.442l.55.832c-50.46 30.741-68.07 71.596-87.23 116.054a728.04 728.04 0 01-2.19 5.08zm-96.519 153.683c68.109-49.842 89.229-101.803 106.459-149.251.86-2.349 1.7-4.687 2.54-7.013l.01-.023c16.1-44.63 30.59-84.797 80.35-115.11l-.56-.832c-50.06 30.495-64.65 70.954-80.74 115.556-.85 2.349-1.7 4.71-2.56 7.081-17.21 47.38-38.25 99.124-106.106 148.793-106.291 62.989-201.799 110.851-286.406 151.816-16.982 8.222-33.526 16.167-49.631 23.901-64.128 30.795-121.287 58.245-171.393 86.54-62.695 35.404-114.383 72.151-154.908 118.477-40.531 46.332-69.878 102.223-87.924 175.891l.992.244c18.014-73.537 47.296-129.288 87.716-175.494 40.424-46.21 92.006-82.893 154.653-118.269 50.074-28.278 107.194-55.708 171.318-86.502l.007-.004c16.106-7.734 32.653-15.68 49.642-23.906 84.623-40.972 180.167-88.852 286.501-151.868l.021-.012.019-.015zm113.879-141.863c-15.24 49.442-34.36 103.412-102.481 153.262l-.019.014-.02.012c-106.063 63.028-201.525 110.47-285.879 151.173a19870.968 19870.968 0 01-38.387 18.457c-68.375 32.816-128.744 61.79-180.832 92.275-61.623 36.065-111.62 74.225-149.523 123.32-37.9 49.091-63.729 109.142-76.974 189.02l-1.006-.175c13.266-80.003 39.148-140.206 77.158-189.441 38.008-49.23 88.121-87.466 149.803-123.565 52.127-30.507 112.54-59.502 180.913-92.318a19602.118 19602.118 0 0038.377-18.452c84.34-40.696 179.764-88.119 285.781-151.119 67.849-49.662 86.899-103.387 102.109-152.76.81-2.611 1.6-5.209 2.39-7.795 14.15-46.323 27.01-88.441 76.93-118.854l.56.833c-49.6 30.215-62.37 72.008-76.53 118.37-.78 2.567-1.57 5.148-2.37 7.743zm-93.363 162.381c68.123-49.856 85.823-105.26 99.633-156.127.75-2.749 1.48-5.485 2.21-8.205l.01-.021c12.79-47.609 24.33-90.566 73.83-120.721l-.56-.832c-49.84 30.362-61.47 73.668-74.24 121.229-.74 2.748-1.48 5.509-2.23 8.284-13.79 50.798-31.42 105.938-99.261 155.594-106.016 62.999-201.855 110.268-286.413 151.074-8.896 4.293-17.668 8.515-26.314 12.676l-.028.014c-73.514 35.382-137.922 66.381-192.393 99.623-60.891 37.159-109.401 77.141-144.372 129.222-34.974 52.085-56.386 116.236-63.142 201.702l1.016.094c6.746-85.342 28.12-149.329 62.984-201.251 34.867-51.925 83.249-91.818 144.072-128.936 54.426-33.213 118.785-64.189 192.31-99.577l.021-.01a28382.38 28382.38 0 0026.318-12.678c84.568-40.812 180.446-88.099 286.509-151.128l.021-.012.019-.014zm106.473-149.305c-12.1 52.575-28.09 109.701-96.22 159.564l-.019.014-.021.012c-106.065 63.03-201.799 109.032-285.899 148.521-8.053 3.781-15.999 7.502-23.837 11.173h-.001l-.001.001c-74.027 34.669-138.418 64.825-192.257 98.258-59.529 36.966-106.123 77.918-138.536 133.362-32.414 55.445-50.669 125.423-53.446 220.478l-1.018-.048c2.78-95.161 21.058-165.305 53.574-220.925 32.517-55.621 79.248-96.676 138.861-133.695 53.893-33.466 118.341-63.649 192.355-98.311l.048-.022c7.825-3.665 15.758-7.38 23.796-11.155 84.089-39.483 179.779-85.464 285.793-148.462 67.828-49.649 83.748-106.487 95.828-158.996.69-2.964 1.36-5.915 2.02-8.851 11.14-49.054 21.29-93.789 71.05-124.099l.55.833c-49.39 30.09-59.46 74.447-70.62 123.562-.66 2.913-1.32 5.842-2 8.786zM999.45 342.56c68.15-49.871 82.13-109.005 92.23-163.573.59-3.156 1.16-6.296 1.73-9.418 6.21-34.149 12.02-66.096 30.07-92.491-17.28 27.469-21.42 61.248-25.82 97.067-.42 3.442-.84 6.902-1.28 10.377-7.25 57.36-18.34 119.006-86.14 168.637-104.267 62.391-197.692 104.899-279.253 140.769-8.591 3.779-17.051 7.484-25.379 11.13l-.001.001c-70.722 30.971-131.89 57.758-182.711 89.832-56.824 35.862-100.74 78.348-130.671 140.712-29.925 62.352-45.853 144.537-46.779 259.769l1.018.028c.926-115.159 16.845-197.191 46.687-259.37 29.837-62.167 73.609-104.527 130.315-140.315 50.754-32.031 111.848-58.786 182.587-89.765l.027-.012c8.316-3.642 16.764-7.342 25.345-11.116 81.577-35.877 175.056-78.408 279.385-140.838l.02-.012.02-.014c68.16-49.882 79.29-111.886 86.54-169.298.43-3.448.85-6.879 1.27-10.29 6.56-53.418 12.5-101.756 61.66-131.7l-.56-.833c-49.67 30.257-58.11 76.663-67.34 127.467-.57 3.148-1.15 6.313-1.74 9.492-10.09 54.506-24.02 113.323-91.838 162.965-106.012 62.996-201.684 107.821-285.52 146.09-7.933 3.621-15.76 7.184-23.48 10.698l-.092.042c-73.824 33.601-137.862 62.748-190.953 96.037-58.678 36.793-104.016 78.666-134.46 137.246-30.44 58.574-45.967 133.809-45.106 237.291l1.019.013c-.861-103.39 14.654-178.458 45-236.85 30.343-58.386 75.536-100.143 134.115-136.874 53.031-33.252 117.005-62.37 190.846-95.98 7.746-3.525 15.601-7.1 23.562-10.735 83.85-38.275 179.569-83.121 285.637-146.153l.021-.012.019-.014zm20.51 20.518c68.17-49.888 77.87-113.327 83.7-172.16.35-3.59.69-7.162 1.03-10.713 5.22-54.692 9.95-104.205 59.04-134.113l-.55-.832c-49.53 30.168-54.29 80.161-59.49 134.738-.35 3.584-.69 7.188-1.05 10.807-5.82 58.788-15.49 121.849-83.28 171.474-104.268 62.39-196.897 103.675-277.178 138.301-7.349 3.169-14.594 6.283-21.736 9.352l-.036.016c-70.857 30.451-131.507 56.516-181.35 89.007-54.898 35.786-96.704 79.377-124.663 145.225-27.952 65.831-42.05 153.877-41.599 278.55l1.018.02c-.45-124.617 13.644-212.519 41.525-278.183 27.873-65.647 69.539-109.098 124.302-144.796 49.766-32.441 110.333-58.471 181.213-88.932 7.148-3.072 14.401-6.189 21.758-9.362 80.297-34.633 172.981-75.942 277.316-138.373l.02-.012.01-.014z" fill="url(#paint0_linear_496_9002)"/><defs><linearGradient id="paint0_linear_496_9002" x1="137.114" y1="781.246" x2="1081.4" y2="-30.884" gradientUnits="userSpaceOnUse"><stop offset=".044" stop-color="#8264FF" stop-opacity="0"/><stop offset=".134" stop-color="#42D481" stop-opacity=".32"/><stop offset=".239" stop-color="#42D481"/><stop offset=".524" stop-color="#A1F1CD"/><stop offset=".842" stop-color="#32AC67"/><stop offset=".969" stop-color="#2F236A"/></linearGradient></defs></svg>