<svg width="1440" height="574" fill="none" xmlns="http://www.w3.org/2000/svg"><path opacity=".5" fill-rule="evenodd" clip-rule="evenodd" d="M1385.27 273.584c-69.8.221-149.41.472-274.72 11.787l-.01.001-.01.002c-261.7 35.228-433.955 81.025-609.79 127.774l-.023.007a25829.88 25829.88 0 01-62.773 16.632C238.88 482.173 21.527 534.332-344.301 572.827l.233.964c365.895-38.502 583.299-90.673 782.395-143.068 21.056-5.541 41.908-11.085 62.709-16.615l.01-.002.059-.016.02-.006c175.83-46.747 348.028-92.529 609.655-127.749 125.26-11.31 204.83-11.561 274.62-11.781 2.77-.009 5.52-.017 8.26-.027 71.82-.244 134.61-.928 228.7-14.454l-.27-.96c-94.01 13.517-156.75 14.2-228.56 14.445l-8.26.026zm7.51-11.459c-71.49-2.812-152.15-5.985-281.8 5.723l-.02.001-.01.001c-260.148 35.02-468.727 88.771-668.064 140.14l-.004.001c-24.939 6.427-49.732 12.816-74.464 19.127-222.423 56.754-439.86 107.153-712.654 121.157l.177.968c272.9-14.009 490.416-64.429 712.853-121.187 24.728-6.309 49.517-12.697 74.449-19.123l.021-.005C642.6 357.559 851.12 303.824 1111.2 268.812c129.58-11.7 210.19-8.529 281.66-5.718l1.05.042c71.75 2.821 134.48 5.205 228.58-8.323l-.27-.959c-94 13.514-156.65 11.134-228.39 8.313l-1.05-.042zm-281.43-10.045c130.3-11.766 211.07-5.875 282.76-.424l2.51.192c70.63 5.372 132.84 10.104 225.72-3.25l.27.959c-93 13.371-155.3 8.631-225.93 3.258l-2.53-.192c-71.67-5.449-152.36-11.336-282.57.421-248.599 33.466-461.144 84.405-660.515 132.186-35.309 8.462-70.204 16.825-104.812 24.975-230.026 54.164-447.412 98.89-689.408 100.495l-.13-.969c241.872-1.604 459.163-46.307 689.179-100.469 34.603-8.148 69.494-16.51 104.8-24.972h.001c199.374-47.782 411.975-98.734 660.635-132.208l.01-.001.01-.001zm283.05-11.809c-71.62-8.518-152.31-17.478-282.62-5.711l-.01.002-.02.001c-231.591 31.176-439.148 77.752-632.477 121.135l-.006.001c-50.999 11.445-101.007 22.666-150.205 33.325-235.72 51.066-452.841 89.197-671.257 76.909l.061.968c218.572 12.297 435.811-25.863 671.537-76.931 49.213-10.661 99.232-21.885 150.238-33.331 193.321-43.382 400.821-89.945 632.369-121.114 130.19-11.756 210.8-2.806 282.39 5.708l5.19.618.08.009c69.44 8.274 131.26 15.64 223.07 2.441l-.27-.959c-91.67 13.179-153.38 5.827-222.81-2.445l-5.26-.626zm-282.21-23.231c122.81-11.509 203.45.52 276.87 12.04l4.62.725c71.58 11.242 136.93 21.506 228.91 8.281l.27.959c-92.14 13.248-157.62 2.963-229.21-8.28l-4.64-.729c-73.39-11.514-153.91-23.527-276.58-12.032-213.522 28.743-410.151 71.656-593.708 111.716-68.018 14.844-134.241 29.297-198.863 42.491-238.993 48.798-456.092 80.392-660.987 50.885l.035-.958c204.692 29.478 421.636-2.079 660.622-50.876 64.598-13.189 130.806-27.639 198.815-42.481h.001c183.571-40.063 380.264-82.99 593.825-111.738l.01-.002.01-.001zm277.22-1.097c-73.34-15.463-153.89-31.439-276.71-19.928l-.01.001-.01.001c-239.997 32.767-445.424 77.242-627.718 116.708h-.001c-72.605 15.719-141.541 30.643-207.529 43.717-231.693 45.904-427.04 68.991-617.462 23.656l-.138.939c190.675 45.395 386.219 22.261 617.924-23.645 66.015-13.079 134.966-28.007 207.581-43.727l.003-.001h.001l.002-.001C667.622 274.2 872.984 229.74 1112.93 196.979c122.66-11.494 203.08 4.456 276.37 19.91 2.1.442 4.19.884 6.28 1.325 70.85 14.967 135.95 28.721 227.41 15.573l-.27-.959c-91.27 13.121-156.21-.598-227.06-15.564l-.16-.035-6.09-1.286zm-276.29-37.45c122.83-11.511 203.32 7.535 276.58 26.066l1.35.342c1.1.277 2.19.555 3.29.832l2.56.648c70.41 17.85 135.1 34.25 225.94 21.189l.28.959c-91.06 13.092-155.94-3.355-226.35-21.206l-.09-.023-4.4-1.115-2.73-.691c-73.21-18.518-153.55-37.529-276.19-26.037-244.836 36.853-442.461 78.595-611.505 114.3h-.001l-.004.001h-.002l-.002.001-.007.001-.005.001-.002.001-.007.001h-.001l-.001.001c-89.125 18.824-170.305 35.971-246.27 49.838-220.034 40.165-396.258 52.801-594.809-1.114l.174-.93c198.309 53.849 374.345 41.247 594.326 1.091 75.924-13.86 157.09-31.003 246.212-49.827l.003-.001c169.069-35.71 366.772-77.467 611.631-114.324l.02-.002.01-.002zm276.9 13.809c-73.18-22.037-153.59-44.593-276.44-33.081l-.01.002-.02.002c-188.438 28.767-348.441 61.014-488.682 90.9-34.849 7.426-68.477 14.707-101.018 21.752-98.413 21.307-186.877 40.459-269.091 54.983-218.777 38.649-393.189 44.497-592.738-29.086l-.273.898c199.825 73.685 374.46 67.804 593.315 29.142 82.232-14.527 170.721-33.685 269.138-54.993h.003l.003-.001c32.537-7.044 66.159-14.323 100.999-21.748 140.229-29.883 300.205-62.124 488.614-90.887 122.63-11.49 202.87 11.019 276 33.038l8.06 2.431c70 21.138 134.65 40.66 225.36 27.619l-.27-.959c-90.47 13.007-154.92-6.452-224.92-27.59-2.67-.805-5.34-1.613-8.03-2.422zm-276.01-50.601c130.92-10.877 211.27 14.748 282.37 39.697l6.88 2.421 3.67 1.296c66.74 23.54 126.94 44.771 216.16 31.943l.27.959c-89.49 12.866-149.91-8.447-216.66-31.99-3.51-1.237-7.03-2.48-10.58-3.724-71.02-24.922-151.18-50.493-281.88-39.637-188.409 28.762-348.18 61.555-488.145 91.746-28.066 6.054-55.336 12.004-81.881 17.795l-.067.015-.017.003-.004.001c-105.8 23.082-200.087 43.653-287.352 58.319-218.386 36.704-392.886 36.45-594.052-53.936l.349-.867c200.872 90.254 375.123 90.535 593.408 53.848 87.238-14.662 181.495-35.226 287.292-58.308h.004l.014-.003c26.57-5.797 53.868-11.753 81.966-17.813 139.977-30.194 299.777-62.993 488.225-91.761l.01-.002.02-.002zm282.66 28.316c-71.03-28.017-151.3-56.715-282.24-45.837l-.02.002-.01.002c-188.152 28.556-347.382 61.644-486.763 91.851-21.583 4.678-42.69 9.287-63.354 13.799-112.788 24.626-212.391 46.374-304.308 60.775-217.486 34.074-391.852 27.003-595.773-80.402l-.417.833c204.223 107.565 378.859 114.621 596.474 80.526 91.949-14.406 191.586-36.161 304.373-60.788l.034-.007c20.652-4.509 41.745-9.115 63.313-13.789 139.369-30.205 298.569-63.287 486.681-91.837 130.69-10.855 210.77 17.776 281.71 45.761 3.7 1.458 7.37 2.914 11.02 4.363l.01.002.13.053c66.44 26.356 126.72 50.266 215.96 37.436l-.27-.959c-88.95 12.788-148.97-11.021-215.41-37.375-3.69-1.464-7.4-2.935-11.14-4.409zm-281.9-59.852c130.94-10.88 211.17 20.013 282.15 50.223 3.85 1.641 7.68 3.279 11.49 4.909 66.25 28.362 126.16 54.012 214.94 41.248l.27.959c-89.09 12.808-149.27-12.957-215.51-41.32-3.82-1.634-7.66-3.276-11.52-4.92-70.89-30.173-150.91-60.988-281.59-50.135-188.113 28.551-347.611 62.063-487.345 92.342a57502.007 57502.007 0 00-43.503 9.45h-.001l-.004.001c-121.379 26.399-227.696 49.523-325.261 63.493-218.138 31.235-392.608 16.727-594.084-109.196l.496-.789c201.163 125.728 375.336 140.239 593.317 109.026 97.528-13.965 203.809-37.081 325.198-63.482h.001c14.287-3.108 28.784-6.261 43.5-9.45 139.743-30.281 299.272-63.799 487.426-92.355l.01-.003.02-.001zm282.41 39.718c-70.91-32.839-151.08-66.366-282.03-55.486l-.02.001-.02.003c-188.152 28.556-346.115 62.989-483.889 93.975a52581.061 52581.061 0 00-38.988 8.789l-.045.01h-.001c-121.171 27.345-226.599 51.138-323.709 64.494-107.387 14.769-204.569 16.771-301.567-3.291-96.994-20.062-193.837-62.193-300.54-135.733l-.541.759c106.813 73.616 203.804 115.821 300.976 135.92 97.168 20.097 194.483 18.084 301.937 3.305 97.156-13.363 202.628-37.165 323.788-64.508 12.834-2.896 25.844-5.832 39.038-8.8 137.765-30.984 295.695-65.41 483.801-93.96 130.67-10.852 210.63 22.585 281.45 55.383 3.97 1.837 7.91 3.672 11.82 5.497l.07.032c66.03 30.769 126.11 58.76 215.03 45.975l-.27-.959c-88.6 12.737-148.39-15.12-214.42-45.89-3.93-1.831-7.89-3.672-11.87-5.516zm-281.61-73.008c130.96-10.88 211.07 25.72 281.91 61.628 4.11 2.082 8.18 4.161 12.24 6.229 45.98 23.459 88.95 45.382 140.83 52.131-51.89-8.154-94.84-32.785-140.57-59.015l-.02-.014c-4.21-2.412-8.44-4.837-12.7-7.263-70.64-40.24-150.4-81.102-281.04-70.252-185.485 27.737-337.083 63.246-468.065 95.229-13.795 3.368-27.362 6.698-40.716 9.975-113.432 27.838-211.502 51.905-303.673 64.095-103.036 13.628-198.731 12.418-300.334-14.956-101.6-27.374-209.07-80.901-335.667-171.858l.56-.745C-205.158 132.958-97.82 186.405 3.603 213.73c101.419 27.325 196.962 28.541 299.903 14.927 92.113-12.183 190.125-36.236 303.569-64.076h.001l.001-.001c13.351-3.276 26.917-6.606 40.712-9.974 130.994-31.986 282.632-67.504 468.171-95.249l.01-.002.02-.002c130.98-10.881 210.99 30.112 281.73 70.402 4.24 2.415 8.44 4.827 12.62 7.225l.06.033c65.54 37.587 125.01 71.694 213.2 59.016v.001l.27.958v.001c-88.76 12.762-148.72-17.826-214.52-51.4-4.07-2.074-8.15-4.158-12.27-6.245-70.75-35.862-150.62-72.357-281.28-61.505-188.11 28.549-344.761 63.882-480.919 95.644-12.933 3.017-25.681 6.002-38.254 8.946-119.791 28.047-223.669 52.368-319.726 65.275-106.148 14.263-202.779 14.595-300.834-9.391-98.057-23.986-197.499-72.281-309.281-155.22l.575-.734c111.683 82.865 210.98 131.076 308.85 155.017 97.874 23.941 194.359 23.62 300.428 9.368 96.005-12.901 199.835-37.21 319.639-65.26l.098-.023c12.538-2.936 25.251-5.912 38.149-8.921 136.168-31.764 292.855-67.105 481.015-95.662l.01-.003.02-.001zm.76-31.538c130.98-10.882 210.94 32.308 281.63 74.79 4.32 2.599 8.61 5.195 12.87 7.775 65.42 39.591 124.81 75.535 212.89 62.871l.27.959c-88.48 12.722-148.21-23.43-213.6-63.007-4.27-2.589-8.57-5.193-12.91-7.799-70.59-42.428-150.29-85.473-280.93-74.624-185.48 27.737-334.848 63.628-463.032 95.651-11.751 2.935-23.324 5.839-34.73 8.7-113.019 28.351-209.714 52.607-301.233 63.74-100.773 12.258-195.294 8.609-298.476-22.998C-84.095 159.79-195.892 100.242-331.231.752l.571-.738c135.272 99.442 246.946 158.91 349.949 190.462 102.994 31.55 197.355 35.2 298.016 22.955 91.453-11.125 188.086-35.365 301.122-63.72 11.403-2.861 22.972-5.763 34.72-8.698 128.196-32.025 277.606-67.927 463.143-95.672l.02-.002.02-.002z" fill="url(#paint0_linear_677_1570)" fill-opacity=".5"/><defs><linearGradient id="paint0_linear_677_1570" x1="-333.641" y1="367.645" x2="1605.68" y2="204.45" gradientUnits="userSpaceOnUse"><stop offset=".044" stop-color="#8264FF" stop-opacity="0"/><stop offset=".134" stop-color="#42D481" stop-opacity=".32"/><stop offset=".239" stop-color="#42D481"/><stop offset=".524" stop-color="#A1F1CD"/><stop offset=".842" stop-color="#32AC67"/><stop offset=".969" stop-color="#2F236A"/></linearGradient></defs></svg>