<svg width="1018" height="775" fill="none" xmlns="http://www.w3.org/2000/svg"><path opacity=".4" fill-rule="evenodd" clip-rule="evenodd" d="M437.312 762.046l.014-.003c131.338-24.026 295.02-147.796 370.672-354.656 5.56-15.202 15.284-28.653 28.259-38.388 104.238-78.211 152.426-140.184 170.253-189.124 17.76-48.772 5.45-84.806-12.046-111.534-15.174-23.186-45.406-36.398-87.718-37.398-42.273-.999-96.26 10.22-158.319 35.486-11.575 4.712-25.111 8.198-37.273 3-11.764-5.028-19.689-13.443-26.429-22.515-2.531-3.407-4.921-6.945-7.278-10.432a781.365 781.365 0 00-2.301-3.393c-3.13-4.584-6.285-9.01-9.81-13.027-7.013-7.995-15.457-14.338-27.924-16.839-12.535-2.515-29.346-1.188-53.142 6.63l-.055.018-.055.014c-38.725 10.138-67.301 31.074-97.709 59.182-10.391 9.605-21.02 20.074-32.346 31.229-21.734 21.406-46.032 45.338-76.13 70.535-11.617 9.725-24.633 17.565-38.344 23.879-70.698 32.56-146.364 68.859-208.031 108.446-30.83 19.792-58.11 40.373-79.502 61.679-21.4 21.314-36.823 43.271-44.078 65.8l-.027.086-.036.082c-5.537 12.814-7.01 24.499-5.34 35.223 1.67 10.733 6.51 20.631 13.796 29.827 14.613 18.444 38.923 33.888 66.518 47.279 25.843 12.54 54.353 23.182 80.093 32.79l5.096 1.903c26.911 10.059 50.495 19.083 63.656 28.047 6.91 4.706 13.049 10.777 17.669 17.784 9.016 13.671 9.979 32.535 10.398 51.715.034 1.59.065 3.183.096 4.776v.003l.001.01c.347 17.884.696 35.919 6.408 51.312 3.09 8.327 7.739 15.831 14.795 22.066 7.061 6.239 16.615 11.283 29.622 14.562 26.073 6.574 65.831 6.012 126.533-6.052l.014-.002zM583.688 8.082c-52.605 13.772-86.597 47.254-130.982 90.974-21.697 21.371-45.877 45.189-75.928 70.346-11.47 9.601-24.34 17.358-37.926 23.615C197.458 258.134 35.758 338.406 6.246 430.064c-33.24 76.92 75.504 117.511 156.107 147.598h.002c29.157 10.884 54.632 20.393 68.372 29.75 6.723 4.579 12.684 10.48 17.162 17.27 9.392 14.242 9.782 34.523 10.187 55.568 1.091 56.662 2.288 118.861 179.586 83.627 132.069-24.16 296.237-148.451 372.087-355.85 5.441-14.879 14.954-28.028 27.626-37.537C1046.07 213.908 1031.5 121.523 996.024 67.32c-31.303-47.832-123.886-53.27-248.3-2.618-11.507 4.685-24.414 7.896-35.837 3.013-15.585-6.66-24.277-19.524-32.877-32.25C662.613 11.2 646.55-12.57 583.688 8.082zM49.932 426.98c-31.345 71.842 70.244 109.34 145.543 137.134 27.192 10.037 50.956 18.808 63.794 27.475 6.32 4.267 11.927 9.79 16.111 16.166 8.693 13.247 8.991 32.126 9.301 51.715.834 52.838 1.75 110.838 167.714 77.4 137.237-34.861 265.854-133.17 335.668-325.609 5.003-13.789 13.854-25.947 25.598-34.736C1010.41 229.282 1010 135.914 976.979 85.461c-29.142-44.53-115.809-49.279-232.454-1.548-10.65 4.357-22.589 7.355-33.2 2.903-14.642-6.144-22.756-18.148-30.784-30.025-15.258-22.575-30.206-44.688-89.076-25.224-46.049 15.224-78.886 46.098-121.797 86.444-20.88 19.632-44.146 41.506-72.479 64.912-10.654 8.801-22.531 15.986-35.077 21.78C229.57 265.915 77.858 341.348 49.932 426.981zm402.077 308.198c-56.771 11.434-93.944 12.092-118.309 6.058-12.157-3.011-21.08-7.678-27.666-13.465-6.582-5.785-10.909-12.758-13.776-20.505-5.308-14.344-5.576-31.18-5.843-47.876-.023-1.463-.046-2.925-.073-4.384-.327-17.877-1.154-35.468-9.511-48.203-4.319-6.582-10.094-12.266-16.591-16.652-12.312-8.312-34.353-16.648-59.491-25.94l-4.655-1.719h-.001c-24.07-8.885-50.733-18.726-74.884-30.351-25.752-12.396-48.42-26.715-62.012-43.859-6.776-8.548-11.264-17.757-12.789-27.755-1.523-9.99-.106-20.889 5.114-32.853l.034-.076.026-.08c6.865-21.051 21.381-41.594 41.493-61.556 20.104-19.954 45.719-39.249 74.653-57.818 57.875-37.142 128.839-71.26 195.111-101.866 12.663-5.848 24.671-13.109 35.455-22.018 28.368-23.434 51.723-45.392 72.632-65.05 11.002-10.343 21.326-20.05 31.347-29 29.132-26.018 55.848-45.792 89.736-56.997 22.312-7.377 38.055-8.665 49.778-6.35 11.658 2.302 19.534 8.204 26.068 15.65 3.284 3.741 6.221 7.865 9.137 12.135.681.997 1.361 2.004 2.044 3.015l.014.02.012.018.013.019.012.018c2.212 3.271 4.455 6.591 6.834 9.785 6.29 8.445 13.702 16.264 24.733 20.892 11.294 4.74 23.813 1.487 34.528-2.897 58.186-23.81 108.772-34.476 148.349-33.695 39.616.782 67.873 13.007 81.996 34.587 16.191 24.74 24.493 60.085 4.359 107.609-20.189 47.643-68.993 107.572-167.265 181.117-12.023 8.998-21.075 21.437-26.189 35.533-69.615 191.89-197.769 289.783-334.423 324.509zm-222.95-186.167c-69.488-25.831-163.237-60.682-134.483-126.99 25.464-78.714 164.101-147.834 285.81-203.982 12.609-5.817 24.535-13.017 35.219-21.887 25.476-21.149 46.481-40.932 65.365-58.717 39.485-37.186 69.7-65.642 112.129-79.613 54.243-17.862 68.071 2.6 82.187 23.486 7.187 10.635 14.449 21.38 27.157 27.234 10.485 4.829 22.537 1.745 33.235-2.591 106.782-43.273 186.154-38.575 213.004 2.452 37.547 62.659 12.528 158.953-149.859 264.466-13.892 9.027-24.509 22.463-30.201 38.021-63.966 174.839-176.93 266.603-302.309 298.253-152.963 30.552-153.926-23.035-154.804-71.851-.32-17.766-.628-34.9-8.247-47.117-4.017-6.442-9.647-11.923-15.991-16.093-11.998-7.89-33.58-15.913-58.209-25.069h-.001l-.001-.001h-.001zM947.335 223.89c21.651-44.664 18.499-83.835.036-114.666-13.035-19.893-38.97-31.226-75.254-32.114-36.268-.887-82.589 8.687-135.857 30.274-10.735 4.351-23.342 7.685-34.464 2.562-9.768-4.499-16.383-11.769-22.066-19.526-1.982-2.707-3.875-5.507-5.744-8.272l-.001-.002c-.798-1.18-1.591-2.354-2.384-3.51-2.672-3.894-5.381-7.645-8.412-11.04-6.033-6.756-13.327-12.086-24.058-14.142-10.788-2.068-25.216-.859-45.548 5.837-31.059 10.227-55.557 28.299-82.193 52.08-9.362 8.358-19.006 17.441-29.294 27.13-18.912 17.81-39.999 37.668-65.503 58.841-10.802 8.968-22.847 16.236-35.559 22.1-60.855 28.075-125.852 59.353-178.808 93.426-26.475 17.035-49.897 34.742-68.272 53.064-18.382 18.329-31.642 37.204-37.905 56.564l-.023.071-.03.069c-4.768 10.996-6.066 21.027-4.672 30.235 1.394 9.216 5.5 17.711 11.699 25.602 12.434 15.825 33.175 29.075 56.779 40.56 22.479 10.937 47.371 20.191 69.817 28.536l.056.02 3.207 1.193c23.182 8.625 43.594 16.349 55.239 24.006 6.506 4.278 12.305 9.913 16.454 16.567 7.404 11.873 8.095 28.094 8.419 44.554l.038 2.017.023 1.267c.282 15.601.568 31.345 5.651 44.711 5.368 14.117 16.135 25.658 38.5 31.165 22.496 5.539 56.7 4.959 108.765-5.437 124.824-31.522 237.397-122.888 301.198-297.274 5.806-15.869 16.635-29.576 30.811-38.787 81.071-52.677 127.667-102.939 149.355-147.681zM133.346 419.116c-26.43 60.368 58.942 91.751 122.221 115.013 22.344 8.213 41.934 15.415 52.874 22.522 5.86 3.807 11.068 8.842 14.736 14.79 6.829 11.073 7.055 26.589 7.289 42.675.645 44.374 1.353 93.083 140.925 64.823 114.627-29.221 218.085-113.243 276.914-272.931 5.032-13.657 14.179-25.547 26.308-33.594 172.072-114.156 173.45-171.764 138.526-241.109-20.36-40.428-96.384-41.535-194.294-1.529-9.717 3.97-20.666 6.8-30.217 2.445-11.58-5.279-18.17-15.028-24.692-24.677-12.805-18.942-25.348-37.498-74.866-21.088-38.732 12.835-66.373 38.799-102.495 72.729-17.302 16.253-36.551 34.333-59.897 53.675-9.699 8.035-20.515 14.569-31.946 19.857-111.186 51.44-237.908 114.736-261.386 186.399zm337.73 258.444c-47.459 9.607-78.634 10.252-99.129 5.305-20.375-4.918-30.166-15.348-35.028-28.131-4.621-12.149-4.832-26.492-5.04-40.707v-.024l-.001-.008-.01-.731-.01-.636-.012-.816-.01-.625c-.24-14.947-.798-29.694-7.456-40.488-3.792-6.149-9.158-11.329-15.168-15.234-10.647-6.916-29.251-13.87-50.357-21.634l-1.237-.455-1.543-.567-.001-.001c-20.483-7.529-43.203-15.881-63.698-25.78-21.454-10.361-40.285-22.333-51.542-36.665-5.613-7.146-9.317-14.847-10.553-23.209-1.234-8.356-.018-17.47 4.361-27.471l.027-.063.021-.064c5.775-17.627 17.933-34.834 34.764-51.561 16.823-16.721 38.251-32.898 62.459-48.473 48.423-31.153 107.819-59.801 163.413-85.521 11.524-5.332 22.448-11.928 32.254-20.052 23.371-19.363 42.694-37.512 60.022-53.788 9.398-8.827 18.21-17.104 26.762-24.723 24.378-21.719 46.782-38.239 75.151-47.64 18.565-6.152 31.726-7.297 41.556-5.45 9.777 1.835 16.408 6.658 21.885 12.78 2.752 3.075 5.21 6.476 7.634 10.008.718 1.046 1.435 2.107 2.157 3.174 1.697 2.512 3.417 5.056 5.22 7.514 5.159 7.036 11.173 13.626 20.074 17.684 10.133 4.62 21.588 1.561 31.339-2.423 48.853-19.962 92.143-29.62 125.679-29.293 33.593.327 56.994 10.644 66.817 30.149 17.381 34.511 25.561 65.751 8.343 102.515-17.31 36.958-60.375 79.717-146.388 136.78-12.39 8.22-21.722 20.357-26.853 34.284-58.677 159.275-161.78 242.936-275.902 272.04zM285.171 518.08c-57.548-21.177-135.187-49.749-111.172-104.65 21.216-64.836 135.34-122.11 236.044-168.732 11.438-5.295 22.281-11.838 31.968-19.902 20.618-17.163 37.707-33.22 53.102-47.684 32.835-30.851 57.962-54.458 93.177-66.121 45.021-14.91 56.433 1.971 68.082 19.205 5.686 8.411 11.429 16.907 21.165 21.83 9.371 4.739 20.388 1.801 30.122-2.142 88.366-35.797 156.89-34.592 175.323 2 31.659 62.849 30.551 115.092-124.142 218.103-12.122 8.072-21.295 19.989-26.373 33.639-53.566 143.977-147.242 219.81-251.002 246.237-126.905 25.661-127.564-18.644-128.164-59.005-.212-14.244-.416-27.996-6.159-38.009-3.475-6.057-8.774-11.084-14.696-14.783-10.09-6.301-27.496-12.707-47.275-19.985v-.001zm106.253 135.471c18.656 4.407 46.917 3.774 89.767-4.888 103.323-26.325 196.69-101.846 250.123-245.466 5.164-13.881 14.496-26.012 26.844-34.234 77.325-51.492 116.016-90.146 131.518-123.606 15.425-33.293 7.966-61.634-7.793-92.92-8.907-17.682-30.047-27.07-60.354-27.469-30.26-.397-69.313 8.194-113.408 26.056-9.74 3.946-21.235 7.108-31.14 2.1-7.684-3.886-12.925-9.904-17.488-16.243-1.459-2.027-2.839-4.069-4.203-6.087-2.954-4.371-5.835-8.634-9.29-12.403-4.976-5.428-11.026-9.672-19.89-11.248-8.911-1.585-20.787-.497-37.433 5.016-25.626 8.487-45.898 23.364-67.883 42.913-7.917 7.04-16.074 14.703-24.785 22.887-15.419 14.486-32.575 30.604-53.211 47.783-9.782 8.143-20.72 14.74-32.238 20.072-50.352 23.311-103.989 49.254-147.68 77.453-43.758 28.243-77.249 58.571-87.712 90.546l-.018.056-.024.054c-3.954 9.041-5.072 17.289-3.983 24.858 1.089 7.573 4.398 14.551 9.425 21.027 10.082 12.988 26.986 23.852 46.301 33.261 18.853 9.183 39.85 16.91 58.75 23.865l1.317.485c19.168 7.055 36.166 13.361 46.161 19.603 6.06 3.785 11.518 8.949 15.112 15.215 5.692 9.924 6.085 23.303 6.295 36.828l.023 1.515.001.065.002.107c.196 13.136.395 26.401 4.791 37.567 4.526 11.498 13.548 20.85 32.103 25.232zM216.176 404.696c-21.448 49.336 48.309 75.193 100.015 94.358v.001h.001c17.2 6.375 32.402 12.01 41.585 17.523 5.959 3.578 11.358 8.601 14.599 14.75 4.708 8.935 4.913 20.924 5.125 33.328.62 36.306 1.301 76.16 115.177 53.334 92.56-23.425 176.072-90.801 224.007-218.754 5.127-13.687 14.326-25.664 26.472-33.794 136.638-91.449 137.379-138.255 108.971-194.574-16.512-32.733-77.327-34.157-155.822-2.786-9.784 3.909-20.964 6.954-30.095 1.696-7.866-4.529-12.737-11.737-17.563-18.877-10.493-15.525-20.771-30.733-61.159-17.412-31.59 10.419-54.099 31.604-83.514 59.288-13.395 12.606-28.221 26.56-45.989 41.458-9.705 8.138-20.624 14.711-32.119 20.03-89.848 41.576-190.906 92.556-209.691 150.431zm276.271 212.275c-38.132 7.642-63.41 8.211-80.183 4.315-16.693-3.878-24.934-12.165-29.129-22.381-4.178-10.174-4.386-22.339-4.592-34.37l-.01-.574c-.208-12.089-.472-24.083-5.234-33.119-3.351-6.359-8.906-11.509-14.985-15.159-9.267-5.563-24.536-11.223-41.646-17.565l-.193-.071c-17.242-6.392-36.42-13.505-53.55-21.972-17.15-8.477-32.115-18.251-41.026-29.9-4.444-5.809-7.366-12.064-8.32-18.846-.953-6.778.048-14.15 3.555-22.216l.02-.046.015-.048c9.27-28.562 38.941-55.606 77.771-80.775 38.776-25.132 86.442-48.244 131.366-69.032 11.562-5.35 22.562-11.969 32.35-20.177 17.779-14.907 32.664-28.916 46.082-41.543 8.004-7.532 15.485-14.572 22.747-21.019 19.492-17.305 37.544-30.477 60.331-37.993 14.654-4.833 25.201-5.847 33.165-4.518 7.926 1.323 13.387 4.982 17.858 9.705 3.335 3.522 6.083 7.587 8.902 11.757v.001l.01.015a274.672 274.672 0 003.064 4.469c3.967 5.628 8.43 11.063 14.875 14.774 9.607 5.532 21.239 2.27 31.003-1.632 39.173-15.655 73.856-23.094 100.748-22.571 26.928.523 45.758 9.006 53.755 24.858 14.146 28.045 20.91 53.462 7.388 83.211-13.584 29.887-47.707 64.314-116.007 110.026-12.338 8.257-21.67 20.414-26.87 34.295-47.821 127.649-131.071 194.762-223.26 218.101zM339.171 489.392c-45.985-17.074-108.025-40.109-88.976-83.988 16.54-51.061 105.065-96.049 184.447-132.829 11.505-5.33 22.434-11.892 32.121-20.074 15.071-12.731 27.749-24.667 39.241-35.487 26.143-24.614 46.148-43.449 74.233-52.703 35.906-11.832 45.053 1.702 54.39 15.518 3.976 5.883 7.987 11.817 14.112 15.866 8.796 5.814 20.132 2.645 29.941-1.221 68.977-27.187 122.31-25.682 136.89 3.213 25.139 49.823 24.656 91.268-94.697 171.628-12.135 8.17-21.317 20.14-26.517 33.814C651.653 515.41 577.883 574.627 496.158 595.28c-101.247 20.253-101.871-15.202-102.44-47.5-.186-10.565-.366-20.793-4.06-28.622-2.963-6.28-8.436-11.264-14.459-14.72-8.244-4.73-21.314-9.583-36.028-15.046zm85.956 108.963c14.933 3.355 37.301 2.796 70.841-3.912 81.423-20.583 154.978-79.586 197.586-191.619 5.26-13.829 14.55-25.946 26.84-34.22 59.66-40.169 89.437-70.507 101.229-96.904 11.743-26.287 5.704-48.808-6.819-73.627-7.078-14.029-23.65-21.579-47.301-22.166-23.624-.586-54.082 5.796-88.508 19.364-4.924 1.941-10.297 3.735-15.575 4.296-5.288.562-10.539-.107-15.154-3.157-5.273-3.485-8.996-8.313-12.39-13.223-.67-.97-1.327-1.941-1.979-2.907-2.678-3.96-5.287-7.82-8.513-11.084-3.973-4.022-8.851-7.097-15.858-8.157-7.037-1.065-16.292-.108-29.02 4.086-20.053 6.608-35.978 18.144-53.09 33.285-6.663 5.896-13.493 12.327-20.816 19.222h-.001l-.001.001c-2.084 1.962-4.209 3.963-6.381 5.999-9.797 9.185-20.545 19.087-32.901 29.524-9.757 8.241-20.754 14.841-32.314 20.197-39.69 18.389-81.616 38.809-115.681 61-34.11 22.219-60.14 46.092-68.311 71.316l-.012.039-.017.038c-3.089 7.116-3.991 13.63-3.179 19.627.812 6 3.348 11.536 7.22 16.68 7.761 10.312 20.836 18.98 35.876 26.503 15.023 7.516 31.9 13.84 47.184 19.517l1.448.538c14.661 5.443 27.788 10.317 36.096 15.083 6.123 3.514 11.748 8.613 14.808 15.098 3.773 7.998 3.956 18.385 4.14 28.854l.01.571c.19 10.763.446 21.627 4.344 30.653 3.859 8.933 11.327 16.144 26.199 19.485zM298.435 394.753c-16.648 38.422 37.674 58.635 77.939 73.617l.001.001c12.242 4.555 23.185 8.627 30.438 12.58 6.088 3.318 11.659 8.273 14.288 14.689 2.743 6.693 2.898 15.167 3.057 23.905.517 28.29 1.084 59.345 89.702 41.665 70.883-17.878 134.905-68.933 172.369-165.535 5.295-13.654 14.437-25.616 26.555-33.84 102.093-69.28 102.321-105.363 80.451-148.688-12.646-25.053-58.493-26.637-117.938-3.636-9.843 3.809-21.399 7.092-29.736.621-4.471-3.471-7.614-8.12-10.731-12.734-8.182-12.107-16.197-23.967-47.622-13.625-24.58 8.09-42.081 24.576-64.951 46.12-9.583 9.026-20.108 18.941-32.492 29.498-9.663 8.238-20.614 14.793-32.132 20.139-68.899 31.98-144.899 70.977-159.198 115.223zm215.278 165.803c-28.957 5.775-48.414 6.321-61.503 3.504-13.045-2.808-19.736-8.947-23.256-16.601-3.552-7.722-3.916-17.06-4.096-26.366l-.03-1.608c-.157-8.69-.314-17.285-3.106-24.099-2.707-6.608-8.419-11.662-14.588-15.024-7.298-3.978-18.285-8.066-30.503-12.612l-1.135-.422-1.56-.581c-13.318-4.963-27.894-10.498-40.815-17.062-12.934-6.57-24.128-14.132-30.745-23.108-3.302-4.479-5.455-9.298-6.127-14.516-.673-5.216.13-10.874 2.802-17.041l.013-.03.01-.031c7.072-21.884 29.464-42.586 58.853-61.856 29.355-19.248 65.541-36.975 99.988-52.964 11.56-5.366 22.566-11.951 32.285-20.237 10.498-8.949 19.66-17.436 28.038-25.306 1.519-1.427 3.012-2.833 4.482-4.218 6.643-6.258 12.824-12.08 18.858-17.395 14.731-12.977 28.527-22.874 45.84-28.572 10.796-3.553 18.748-4.449 24.851-3.648 6.081.798 10.372 3.287 13.851 6.603 3.143 2.995 5.617 6.655 8.155 10.411l.371.548.152.225.357.526c2.84 4.176 5.851 8.37 9.994 11.586 4.347 3.374 9.51 4.181 14.778 3.683 5.258-.497 10.679-2.299 15.612-4.208 29.674-11.481 55.903-16.806 76.255-16.157 20.372.649 34.682 7.266 40.842 19.469 10.899 21.592 16.211 41.215 6.245 64.041-10.004 22.909-35.441 49.159-86.474 83.79-12.239 8.305-21.463 20.38-26.804 34.152-37.388 96.409-101.242 147.299-171.89 165.124zm-108.16-107.678c-33.956-12.79-79.767-30.044-65.872-62.455 11.698-36.712 73.642-68.943 130.766-95.486 11.612-5.395 22.678-11.981 32.356-20.364 9.349-8.099 17.424-15.728 24.828-22.723h.001c19.19-18.13 33.874-32.003 54.547-38.758 26.43-8.637 33.218 1.41 40.147 11.666 2.161 3.198 4.335 6.415 7.122 9.094 7.652 7.353 19.534 4.05 29.473.332 48.781-18.248 86.299-16.464 96.852 4.393 18.331 36.231 18.481 66.421-64.169 123.255-12.141 8.35-21.275 20.398-26.706 34.096-31.421 79.253-84.484 121.175-143.265 135.839-74.57 14.652-75.148-11.59-75.675-35.495-.149-6.776-.294-13.364-2.119-18.78-2.196-6.52-7.878-11.468-13.993-14.62-6.085-3.136-14.717-6.387-24.292-9.994h-.001zm64.809 81.316c11.038 2.271 27.269 1.794 51.165-2.9 58.613-14.626 111.555-56.431 142.921-135.544 5.463-13.78 14.654-25.908 26.882-34.317 41.313-28.409 61.834-50.098 69.779-69.141 7.921-18.987 3.372-35.429-5.769-53.496-5.161-10.201-16.959-15.827-33.68-16.596-16.708-.768-38.214 3.327-62.569 12.437-4.976 1.862-10.487 3.639-15.73 4.016-5.253.377-10.291-.649-14.249-4.452-2.825-2.715-5.026-5.972-7.179-9.16l-.344-.509c-2.277-3.365-4.536-6.617-7.489-9.168-2.939-2.538-6.572-4.387-11.608-4.911-5.049-.525-11.532.279-20.162 3.099-14.235 4.652-25.627 12.703-37.672 23.248-5.338 4.675-10.798 9.833-16.691 15.4l-.003.002-2.289 2.163c-6.778 6.396-14.152 13.295-22.555 20.574-9.721 8.421-20.827 15.029-32.468 20.438-28.561 13.27-58.299 27.951-82.355 43.894-24.079 15.958-42.359 33.115-48.154 51.299l-.007.023-.009.021c-4.383 10.223-2.733 18.875 2.631 26.371 5.389 7.532 14.54 13.91 25.175 19.468 10.626 5.553 22.678 10.259 33.82 14.474l3.961 1.494.01.003c9.569 3.604 18.231 6.867 24.344 10.017 6.174 3.182 11.978 8.211 14.231 14.897 1.85 5.491 1.996 12.161 2.144 18.923.02.896.039 1.793.063 2.69.204 7.715.701 15.392 3.872 21.71 3.15 6.274 8.972 11.267 19.984 13.533z" fill="url(#paint0_radial_495_2356)"/><defs><radialGradient id="paint0_radial_495_2356" cx="0" cy="0" r="1" gradientUnits="userSpaceOnUse" gradientTransform="matrix(219.03984 311.97456 -558.20867 391.92278 503.108 300.042)"><stop stop-color="#38D996"/><stop offset="1" stop-color="#38D996"/></radialGradient></defs></svg>