<?xml version="1.0" standalone="no"?>
<!DOCTYPE svg PUBLIC "-//W3C//DTD SVG 1.1//EN" "http://www.w3.org/Graphics/SVG/1.1/DTD/svg11.dtd" >
<svg xmlns="http://www.w3.org/2000/svg">
<metadata>Generated by IcoMoon</metadata>
<defs>
<font id="icomoon" horiz-adv-x="1024">
<font-face units-per-em="1024" ascent="960" descent="-64" />
<missing-glyph horiz-adv-x="1024" />
<glyph unicode="&#x20;" horiz-adv-x="512" d="" />
<glyph unicode="&#xe900;" glyph-name="download-arrow" d="M503.376 244.020c1.025-1.308 2.333-2.367 3.828-3.095s3.135-1.107 4.797-1.107c1.662 0 3.304 0.378 4.797 1.107s2.804 1.786 3.828 3.095l153.325 193.985c5.613 7.119 0.548 17.66-8.624 17.66h-101.441v463.263c0 6.024-4.928 10.951-10.951 10.951h-82.139c-6.024 0-10.951-4.928-10.951-10.951v-463.126h-101.168c-9.172 0-14.237-10.541-8.624-17.66l153.325-194.121zM1013.045 291.935h-82.132c-6.024 0-10.955-4.928-10.955-10.951v-210.822h-815.914v210.822c0 6.024-4.928 10.951-10.951 10.951h-82.14c-6.024 0-10.951-4.928-10.951-10.951v-271.059c0-24.234 19.576-43.805 43.808-43.805h936.387c24.226 0 43.805 19.572 43.805 43.805v271.059c0 6.024-4.932 10.951-10.955 10.951z" />
<glyph unicode="&#xe901;" glyph-name="pdf-file-format-symbol" d="M298.166 435.314c0 27.574-19.147 44.031-52.936 44.031-13.783 0-23.122-1.329-28.019-2.662v-88.544c5.789-1.314 12.906-1.764 22.666-1.764 36.050 0 58.289 18.236 58.289 48.939zM507.305 478.457c-15.142 0-24.907-1.333-30.711-2.668v-196.179c5.793-1.355 15.137-1.355 23.592-1.355 61.382-0.429 101.422 33.364 101.422 104.991 0.45 62.304-36.039 95.211-94.303 95.211zM908.038 593.722h-24.589v118.641c0 0.74-0.117 1.485-0.216 2.235-0.039 4.711-1.537 9.338-4.763 13.004l-197.432 225.532c-0.059 0.058-0.117 0.078-0.158 0.141-1.177 1.314-2.549 2.408-3.999 3.354-0.429 0.288-0.863 0.53-1.313 0.779-1.257 0.686-2.59 1.255-3.962 1.666-0.372 0.104-0.706 0.257-1.078 0.353-1.491 0.353-3.040 0.574-4.609 0.574h-485.215c-22.157 0-40.157-18.020-40.157-40.159v-326.112h-24.583c-31.696 0-57.396-25.689-57.396-57.396v-298.471c0-31.685 25.7-57.391 57.396-57.391h24.585v-204.313c0-22.136 18-40.159 40.157-40.159h662.586c22.136 0 40.157 18.020 40.157 40.159v204.313h24.589c31.687 0 57.393 25.706 57.393 57.391v298.462c-0.002 31.705-25.708 57.396-57.394 57.396zM180.706 919.836h465.136v-205.456c0-11.093 9-20.078 20.078-20.078h177.372v-100.593h-662.586v326.127zM673.665 385.494c0-57.402-20.902-96.981-49.861-121.461-31.551-26.245-79.607-38.696-138.31-38.696-35.137 0-60.044 2.225-76.969 4.441v294.513c24.91 3.995 57.406 6.221 91.662 6.221 56.911 0 93.844-10.24 122.774-32.025 31.127-23.137 50.705-60.053 50.705-112.993zM150.030 228.444v295.848c20.898 3.54 50.274 6.221 91.647 6.221 41.813 0 71.626-8.009 91.637-24.035 19.134-15.116 32.005-40.034 32.005-69.397 0-29.372-9.76-54.282-27.569-71.176-23.131-21.804-57.381-31.597-97.43-31.597-8.883 0-16.918 0.452-23.118 1.344v-107.215l-67.172 0.007zM843.294-12.969h-662.588v193.442h662.586v-193.442zM901.479 472.679h-115.244v-68.51h107.667v-55.167h-107.667v-120.56h-68.030v299.845h183.275v-55.608z" />
<glyph unicode="&#xe902;" glyph-name="files" d="M918.72 758.72l-192 192c-6.038 5.99-14.214 9.328-22.72 9.28h-512c-53.020 0-96-42.98-96-96v-832c0-53.020 42.98-96 96-96h640c53.020 0 96 42.98 96 96v704c0.050 8.506-3.29 16.68-9.28 22.72zM864 32c0-17.674-14.326-32-32-32h-640c-17.674 0-32 14.326-32 32v832c0 17.674 14.326 32 32 32h480v-128c0-35.346 28.654-64 64-64h128v-672z" />
<glyph unicode="&#xe903;" glyph-name="csv-file-format-extension" d="M908.040 593.721h-24.585v118.652c0 0.745-0.12 1.485-0.217 2.241-0.039 4.706-1.539 9.338-4.764 12.999l-197.432 225.521c-0.058 0.063-0.12 0.082-0.159 0.14-1.175 1.32-2.547 2.413-3.999 3.354-0.431 0.293-0.863 0.534-1.315 0.783-1.255 0.682-2.589 1.255-3.961 1.668-0.372 0.097-0.704 0.25-1.076 0.351-1.494 0.351-3.042 0.571-4.607 0.571h-485.217c-22.157 0-40.156-18.021-40.156-40.158v-326.111h-24.584c-31.697 0-57.398-25.691-57.398-57.392v-298.465c0-31.686 25.7-57.403 57.398-57.403h24.584v-204.316c0-22.139 17.998-40.156 40.156-40.156h662.588c22.137 0 40.158 18.017 40.158 40.156v204.314h24.585c31.686 0 57.39 25.706 57.39 57.394v298.465c0.002 31.71-25.704 57.392-57.39 57.392zM180.708 919.843h465.137v-205.45c0-11.094 8.998-20.079 20.079-20.079h177.374v-100.592h-662.588v326.12zM483.003 375.099c-49.828 17.352-82.293 44.922-82.293 88.505 0 51.18 42.696 90.333 113.426 90.333 33.817 0 58.731-7.118 76.513-15.141l-15.109-54.721c-12.009 5.803-33.359 14.254-62.733 14.254-29.353 0-43.588-13.352-43.588-28.92 0-19.138 16.896-27.583 55.618-42.268 52.93-19.571 77.844-47.137 77.844-89.411 0-50.256-38.699-92.981-121.007-92.981-34.248 0-68.073 8.92-84.971 18.247l13.783 56.059c18.25-9.364 46.27-18.687 75.198-18.687 31.135 0 47.602 12.902 47.602 32.489-0.009 18.695-14.254 29.361-50.282 42.244zM129.754 394.687c0 102.31 72.975 159.25 163.704 159.25 35.152 0 61.843-7.118 73.863-13.352l-13.805-53.817c-13.783 5.76-32.93 11.092-56.946 11.092-53.829 0-95.633-32.45-95.633-99.169 0-60.059 35.58-97.863 96.1-97.863 20.445 0 43.136 4.441 56.479 9.783l10.24-52.94c-12.461-6.238-40.479-12.922-76.961-12.922-103.653-0.002-157.041 64.528-157.041 149.938zM843.298-12.959h-662.588v193.43h662.588v-193.43zM798.445 249.216h-79.185l-96.089 299.82h74.307l36.467-126.8c10.233-35.571 19.571-69.823 26.705-107.196h1.324c7.56 36.041 16.893 71.627 27.129 105.881l38.262 128.115h72.088l-101.008-299.82z" />
<glyph unicode="&#xe904;" glyph-name="erth" d="M87.444 490.668h211.926c3.669 116.608 22.442 222.848 51.882 303.786 7.552 20.736 15.958 40.32 25.302 58.24-156.288-52.266-272.256-192.554-289.11-362.026zM512 960c282.756 0 512-229.248 512-512 0-282.756-229.244-512-512-512-282.752 0-512 229.244-512 512 0 282.752 229.248 512 512 512zM512.132 874.661c-6.442 0-18.090-3.456-34.090-22.016-15.83-18.432-32.042-47.616-46.506-87.338-25.472-70.144-43.008-166.102-46.678-274.646h254.55c-3.67 108.544-21.206 204.502-46.678 274.646-14.464 39.722-30.678 68.906-46.506 87.338-16 18.56-27.648 22.016-34.091 22.016zM724.628 490.668h211.922c-16.852 169.472-132.82 309.76-289.106 362.026 9.344-17.92 17.75-37.504 25.302-58.24 29.44-80.938 48.17-187.178 51.882-303.786zM639.407 405.339h-254.55c3.67-108.544 21.206-204.504 46.678-274.648 14.464-39.724 30.677-68.908 46.506-87.34 16-18.556 27.648-22.016 34.090-22.016s18.091 3.46 34.091 22.016c15.829 18.432 32.042 47.616 46.506 87.34 25.472 70.144 43.008 166.104 46.678 274.648zM647.444 43.308c156.286 52.268 272.254 192.554 289.106 362.026h-211.922c-3.712-116.608-22.442-222.849-51.882-303.789-7.552-20.736-15.958-40.316-25.302-58.236zM376.554 43.308c-9.344 17.92-17.75 37.5-25.302 58.236-29.44 80.94-48.214 187.181-51.882 303.789h-211.926c16.854-169.472 132.822-309.758 289.11-362.026z" />
<glyph unicode="&#xe905;" glyph-name="search" d="M951.391 76.785l-0.029 0.029-199.687 198.882c58.119 74.863 86.93 168.619 80.662 263.555-6.576 99.676-51.317 192.97-124.904 260.437s-170.343 103.901-270.103 101.703c-99.76-2.197-194.821-42.856-265.374-113.498s-111.153-165.813-113.347-265.683c-2.194-99.87 34.188-196.737 101.568-270.416s160.565-118.486 260.132-125.068c95.344-6.312 189.492 22.894 264.462 81.715l198.503-199.804c4.469-4.476 9.779-8.031 15.623-10.452s12.105-3.672 18.432-3.672c6.327 0 12.595 1.251 18.439 3.672 5.837 2.421 11.147 5.976 15.623 10.452 4.469 4.476 8.016 9.787 10.43 15.638 2.421 5.844 3.664 12.112 3.664 18.439s-1.243 12.588-3.664 18.439c-2.414 5.844-5.961 11.154-10.43 15.631zM445.934 222.398c-57.732 0-114.168 17.142-162.173 49.258s-85.424 77.766-107.52 131.18c-22.097 53.413-27.878 112.189-16.614 168.894s39.071 108.788 79.897 149.666c40.827 40.877 92.84 68.713 149.463 79.99s115.313 5.489 168.652-16.632c53.339-22.121 98.931-59.584 131.009-107.652s49.202-104.586 49.202-162.401c0-77.529-30.759-151.88-85.507-206.695-54.746-54.815-128.994-85.608-206.409-85.608z" />
<glyph unicode="&#xe906;" glyph-name="user" d="M512-64c282.77 0 512 229.23 512 512s-229.23 512-512 512c-282.77 0-512-229.23-512-512s229.23-512 512-512zM168.574 183.962c-56.261 73.096-89.717 164.652-89.717 264.022 0 239.267 193.965 433.231 433.231 433.231s433.232-193.964 433.232-433.231c0-99.479-33.529-191.128-89.907-264.263-25.717 23.369-58.602 40.251-101.895 55.834-6.473 2.331-13.115 4.622-21.394 7.408l-20.176 6.755c-49.063 16.553-66.424 27.070-70.461 40.376-0.138 0.448-0.355 1.279-0.662 2.894-1.747 9.217-1.348 19.299 2.24 27.663 2.115 4.934 5.342 9.326 10.178 13.369 54.41 49.119 81.837 104.477 81.837 179.985 0 131.553-102.928 231.942-223.178 231.942-121.076 0-223.179-98.678-223.179-231.942 0-75.285 26.716-129.027 79.186-178.439 6.751-5.695 10.141-9.863 12.447-14.234 4.463-8.46 5.034-18.27 3.079-27.301-0.14-0.645-0.257-1.132-0.33-1.438-0.088-0.367-0.113-0.473-0.040-0.276-3.887-13.806-19.985-23.726-65.351-39.221l-23.241-7.847c-9.694-3.289-17.399-5.988-24.942-8.772-42.454-15.67-75.271-32.976-100.955-56.513zM222.193 126.032c17.33 15.667 41.267 28.24 74.611 40.543 6.787 2.509 13.885 4.996 22.976 8.082l23.393 7.892c70.387 24.042 102.459 43.805 114.861 89.866 0.004-0.46 1.251 3.709 2.385 8.948 5.541 25.595 3.91 53.598-10.394 80.716-7.152 13.558-17.149 25.849-29.997 36.49-35.738 33.766-52.539 67.561-52.539 119.434 0 89.148 66.247 153.173 144.41 153.173 77.181 0 144.41-65.57 144.41-153.173 0-51.924-17.197-86.631-54.732-120.543-13.327-11.102-23.978-25.604-30.909-41.765-10.655-24.844-11.652-50.085-7.237-73.378 0.946-4.993 1.981-8.957 2.878-11.74 14.194-46.791 47.18-66.774 120.455-91.496l20.243-6.78c7.804-2.626 13.956-4.747 19.834-6.861 33.857-12.186 57.702-24.349 74.898-39.629-76.744-69.047-178.292-111.060-289.653-111.060-111.477 0-213.12 42.101-289.894 111.28z" />
<glyph unicode="&#xe907;" glyph-name="arrow-down__sm" d="M512 192l-443.405 460.8h886.81l-443.405-460.8z" />
<glyph unicode="&#xe908;" glyph-name="arrow-right" d="M0 374.857h762.536l-244.392-262.583 96.256-103.131 409.6 438.857-409.6 438.857-96.256-103.131 244.392-262.583h-762.536v-146.286z" />
<glyph unicode="&#xe909;" glyph-name="close" d="M492.086 566.652l372.898 372.899c27.266 27.266 71.473 27.266 98.74 0s27.266-71.472 0-98.738l-372.9-372.899 372.797-372.797c27.266-27.265 27.266-71.471 0-98.738s-71.472-27.266-98.738 0l-372.797 372.797-372.798-372.797c-27.265-27.266-71.472-27.266-98.737 0s-27.266 71.472 0 98.738l372.798 372.797-372.899 372.899c-27.266 27.266-27.266 71.472 0 98.738s71.472 27.266 98.738 0l372.899-372.899z" />
<glyph unicode="&#xe90a;" glyph-name="angle-top" d="M903.683 128l-391.681 395.574-391.681-395.574-120.321 121.782 512 518.218 512-518.218-120.321-121.782z" />
<glyph unicode="&#xe90b;" glyph-name="angle-bottom" d="M120.318 768l391.681-395.574 391.681 395.574 120.321-121.782-512-518.218-512 518.218 120.321 121.782z" />
<glyph unicode="&#xe90c;" glyph-name="angle-left" d="M832 839.682l-395.574-391.681 395.574-391.681-121.782-120.321-518.218 512 518.218 512 121.782-120.321z" />
<glyph unicode="&#xe90d;" glyph-name="angle-right" d="M191.999 56.318l395.574 391.681-395.574 391.681 121.782 120.321 518.218-512-518.218-512-121.782 120.321z" />
<glyph unicode="&#xe90e;" glyph-name="pdf" d="M275.2 192.003h-51.2v-64.001h51.2c19.2 0 32 12.799 32 32 0 19.199-12.8 32-32 32zM607.999 960h-511.998v-1024h831.999v704l-320 320zM364.799 153.603c0-51.202-38.398-89.602-89.599-89.602h-51.2v-63.999h-64v255.999h115.2c51.201 0 89.599-38.4 89.599-89.6v-12.799zM627.201 121.602c0-64.001-51.2-121.6-121.6-121.6h-89.6v255.999h89.6c63.999 0 121.6-51.2 121.6-121.6v-12.799zM863.998 192.003h-128v-64.001h96.001v-64.001h-96.001v-63.999h-63.999v255.999h191.998v-63.999zM863.998 320.002h-703.999v575.998h447.998v-256h255.999v-319.998zM505.601 192.003h-25.601v-128.002h25.601c38.4 0 63.999 25.601 63.999 64.001s-31.998 64.001-63.999 64.001z" />
<glyph unicode="&#xe90f;" glyph-name="download" d="M545.67-48.661l456.19 525.617c3.482 4.034 5.427 9.183 5.427 14.608v123.127c0 10.295-12.797 15.025-19.478 7.234l-422.94-487.219v814.165c0 6.121-5.008 11.13-11.13 11.13h-83.475c-6.121 0-11.13-5.008-11.13-11.13v-814.026l-422.943 487.22c-6.817 7.791-19.478 3.061-19.478-7.234v-127.301c0-2.643 0.974-5.287 2.783-7.234l458.836-528.957c4.188-4.814 9.362-8.676 15.169-11.326 5.809-2.644 12.116-4.013 18.499-4.013s12.691 1.369 18.499 4.013c5.809 2.651 10.98 6.512 15.169 11.326z" />
<glyph unicode="&#xe910;" glyph-name="env" d="M13.269 718.123c20.864 42.112 64.341 71.211 114.731 71.211h768c50.387 0 93.867-29.099 114.733-71.211 8.488-17.152 13.267-36.48 13.267-56.789v-426.667c0-70.701-57.299-128-128-128h-768c-70.699 0-128 57.299-128 128v426.667c0 20.309 4.779 39.637 13.269 56.789zM131.755 704l359.808-196.267c12.757-6.955 28.117-6.955 40.875 0l359.808 196.267h-760.491zM938.667 632.107l-365.352-199.253c-38.232-20.864-84.397-20.864-122.627 0l-365.355 199.253v-397.44c0-23.552 19.115-42.667 42.667-42.667h768c23.552 0 42.667 19.115 42.667 42.667v397.44z" />
<glyph unicode="&#xe911;" glyph-name="play" d="M109.715 960v-1024l804.57 512-804.57 512z" />
<glyph unicode="&#xe912;" glyph-name="user-2" d="M511.999 960c-148.886 0-270-121.114-270-270s121.114-270 270-270 270 121.114 270 270-121.114 270-270 270zM956.961 162.64c-80.712 121.084-215.802 193.36-361.29 193.36h-167.344c-145.488 0-280.576-72.276-361.288-193.36l-5.040-7.558v-219.082h900.002v219.082l-5.040 7.558z" />
<glyph unicode="&#xe913;" glyph-name="q-mark" d="M356.619 245.39h176.599v41.069c0 151.958 242.311 176.599 242.311 413.433 0 162.909-135.53 260.108-297.070 260.108-95.829 0-177.968-32.856-229.99-64.343v-186.181c93.091 58.866 160.171 69.818 213.562 69.818 67.080 0 110.888-45.177 110.888-104.043 0-132.791-216.299-156.065-216.299-362.781v-67.080zM331.978 45.518c0-65.712 43.807-109.519 113.625-109.519 68.449 0 113.625 43.807 113.625 109.519 0 68.449-45.177 110.888-113.625 110.888-69.818 0-113.625-42.438-113.625-110.888z" />
<glyph unicode="&#xe914;" glyph-name="i" d="M405.234 643.182v-707.182h213.531v707.182h-213.531zM393.846 845.436c0-67.89 45.553-113.149 118.154-113.149 71.177 0 118.154 45.259 118.154 113.149 0 70.718-46.977 114.564-118.154 114.564-72.601 0-118.154-43.845-118.154-114.564z" />
<glyph unicode="&#xe915;" glyph-name="arrow-long" d="M1022.661 444.782c1.785 1.777 1.785 4.659 0 6.436l-28.96 28.963c-1.775 1.777-4.654 1.777-6.439 0-1.775-1.777-1.775-4.659 0-6.436l25.745-25.745-25.745-25.745c-1.775-1.777-1.775-4.659 0-6.436 1.785-1.777 4.664-1.777 6.439 0l28.96 28.963zM0 443.449h1019.447v9.102h-1019.447v-9.102z" />
<glyph unicode="&#xe916;" glyph-name="arrow-bottom" d="M437.333 960v-762.541l-268.053 244.397-105.28-96.256 448-409.6 448 409.6-105.28 96.256-268.053-244.397v762.541h-149.334z" />
<glyph unicode="&#xe917;" glyph-name="arrow-top" d="M586.667-64v762.539l268.053-244.395 105.28 96.256-448 409.6-448-409.6 105.28-96.256 268.053 244.395v-762.539h149.334z" />
<glyph unicode="&#xe918;" glyph-name="load" d="M512 820.364v139.636l-192-186.182 192-186.182v139.636c158.88 0 288-125.208 288-279.273 0-47.011-12-91.695-33.6-130.33l70.080-67.955c37.44 57.254 59.52 125.208 59.52 198.285 0 205.731-171.84 372.364-384 372.364zM512 168.73c-158.88 0-288 125.203-288 279.271 0 47.011 12 91.694 33.6 130.327l-70.080 67.956c-37.44-57.251-59.52-125.208-59.52-198.284 0-205.729 171.84-372.365 384-372.365v-139.635l192 186.182-192 186.182v-139.635z" />
<glyph unicode="&#xe919;" glyph-name="share" d="M910.225 49.775h-796.448v796.448h398.223v113.777h-398.223c-63.146 0-113.777-51.2-113.777-113.777v-796.448c0-62.575 50.631-113.775 113.777-113.775h796.448c62.575 0 113.775 51.2 113.775 113.775v398.225h-113.775v-398.225zM625.623 960v-113.777h204.231l-559.217-559.218 80.213-80.213 559.222 559.218v-204.232h113.775v398.223h-398.223z" />
<glyph unicode="&#xe91a;" glyph-name="twitter" d="M1024 765.504c-38.080-16.704-78.656-27.776-120.96-33.152 43.52 25.984 76.736 66.816 92.352 116.032-40.576-24.192-85.376-41.28-133.12-50.816-38.528 41.024-93.44 66.432-153.344 66.432-116.224 0-209.792-94.336-209.792-209.984 0-16.64 1.408-32.64 4.864-47.872-174.528 8.512-328.96 92.16-432.704 219.584-18.112-31.424-28.736-67.392-28.736-106.112 0-72.704 37.44-137.152 93.248-174.464-33.728 0.64-66.816 10.432-94.848 25.856 0-0.64 0-1.472 0-2.304 0-102.016 72.768-186.752 168.192-206.272-17.088-4.672-35.712-6.912-55.040-6.912-13.44 0-27.008 0.768-39.744 3.584 27.2-83.136 104.384-144.256 196.16-146.24-71.424-55.872-162.112-89.536-260.288-89.536-17.216 0-33.728 0.768-50.24 2.88 92.992-59.968 203.2-94.208 322.048-94.208 386.304 0 597.504 320 597.504 597.376 0 9.28-0.32 18.24-0.768 27.136 41.664 29.568 76.672 66.496 105.216 108.992z" />
<glyph unicode="&#xe91b;" glyph-name="xml-file-format-symbol" d="M908.038 593.72h-24.589v118.641c0 0.746-0.117 1.485-0.216 2.24-0.039 4.711-1.537 9.338-4.763 12.999l-197.432 225.538c-0.059 0.058-0.117 0.078-0.158 0.136-1.177 1.314-2.549 2.413-3.999 3.354-0.429 0.294-0.863 0.534-1.313 0.785-1.257 0.68-2.59 1.255-3.962 1.666-0.372 0.099-0.706 0.251-1.078 0.353-1.491 0.348-3.040 0.569-4.609 0.569h-485.215c-22.157 0-40.157-18.020-40.157-40.159v-326.112h-24.583c-31.696 0-57.396-25.689-57.396-57.391v-298.465c0-31.687 25.7-57.402 57.396-57.402h24.585v-204.313c0-22.136 18-40.159 40.157-40.159h662.587c22.136 0 40.157 18.020 40.157 40.159v204.313h24.589c31.687 0 57.393 25.706 57.393 57.391v298.465c-0.002 31.702-25.708 57.393-57.394 57.393zM180.706 919.834h465.136v-205.45c0-11.093 9-20.078 20.078-20.078h177.372v-100.593h-662.587v326.121zM686.999 263.707h-59.599l-4.008 103.216c-1.197 32.412-2.413 71.609-2.413 110.823h-1.177c-8.392-34.423-19.608-72.814-30-104.411l-32.804-105.228h-47.627l-28.805 104.402c-8.784 31.597-17.979 70.010-24.397 105.226h-0.799c-1.588-36.411-2.804-78.010-4.808-111.617l-4.789-102.411h-56.411l17.215 269.636h81.2l26.412-90.020c8.398-31.185 16.808-64.784 22.789-96.382h1.216c7.587 31.177 16.803 66.785 25.607 96.793l28.803 89.607h79.607l14.787-269.634zM130.123 263.707l77.999 136.431-75.19 133.205h70.005l23.588-49.201c8.024-16.412 14.005-29.612 20.432-44.79h0.785c6.392 17.182 11.582 29.177 18.392 44.79l22.819 49.201h69.594l-76.019-131.618 80.024-138.019h-70.397l-24.418 48.815c-9.995 18.792-16.392 32.793-23.999 48.411h-0.805c-5.594-15.618-12.408-29.619-20.803-48.411l-22.387-48.815h-69.618zM843.294-12.971h-662.589v193.442h662.587v-193.442zM902.273 263.707h-168.45v269.636h61.226v-218.44h107.237v-51.196h-0.013z" />
<glyph unicode="&#xe91c;" glyph-name="download-right" d="M1008.66 481.67l-525.617 456.19c-4.034 3.482-9.183 5.427-14.608 5.427h-123.127c-10.295 0-15.025-12.797-7.234-19.478l487.219-422.94h-814.164c-6.121 0-11.13-5.008-11.13-11.13v-83.475c0-6.121 5.008-11.13 11.13-11.13h814.026l-487.22-422.943c-7.791-6.817-3.061-19.478 7.234-19.478h127.301c2.643 0 5.287 0.974 7.234 2.783l528.957 458.836c4.814 4.188 8.676 9.362 11.326 15.169 2.644 5.809 4.013 12.116 4.013 18.499s-1.369 12.691-4.013 18.499c-2.651 5.809-6.512 10.98-11.326 15.169z" />
<glyph unicode="&#xe91d;" glyph-name="down-arrow-with-border" d="M26.948 43.791h970.104v-107.791h-970.104v107.791zM565.896 357.89l327.195 327.246 76.203-76.206-457.294-457.352-457.296 457.298 76.206 76.261 327.194-327.141v602.005h107.791v-602.11z" />
<glyph unicode="&#xe91e;" glyph-name="pdf-4" d="M939.887 708.388l-239.909 241.372-25.6 10.24h-564.666l-36.572-36.571v-402.287h73.143v365.716h438.858v-256l36.572-36.572h256v-73.143h73.145v160.915l-10.972 26.331zM658.286 667.428v219.429l219.428-219.429h-219.428zM109.712 448l-36.572-36.572v-438.856l36.572-36.572h804.575l36.572 36.572v438.856l-36.572 36.572h-804.575zM877.714 82.283v-73.139h-731.432v365.712h731.432v-292.573zM292.569 155.428h-23.405v-73.145h-49.738v219.434h77.532c54.858 0 82.652-26.333 82.652-73.145 0.141-9.948-1.877-19.809-5.919-28.903s-10.007-17.198-17.487-23.762c-18.126-14.126-40.67-21.386-63.634-20.481zM288.181 261.484h-19.018v-68.019h19.018c26.331 0 39.497 11.7 39.497 34.376s-13.166 33.643-39.497 33.643zM585.142 113.003c10.804 10.64 19.251 23.435 24.791 37.545 5.545 14.111 8.064 29.231 7.393 44.375 0 73.145-38.769 106.794-117.028 106.794h-77.532v-219.434h77.532c15.467-0.748 30.934 1.582 45.502 6.856 14.561 5.274 27.934 13.384 39.341 23.864zM471.77 122.515v138.967h24.136c9.334 0.594 18.683-0.722 27.485-3.865 8.806-3.143 16.876-8.049 23.716-14.419 6.201-6.513 11.018-14.209 14.162-22.631s4.547-17.398 4.127-26.373c1.096-19.282-5.478-38.21-18.288-52.664-6.692-6.411-14.617-11.397-23.29-14.664s-17.914-4.752-27.177-4.353h-24.868zM797.259 167.132h-70.954v-84.849h-49.735v219.434h127.269v-40.233h-77.532v-54.124h70.954v-40.228z" />
<glyph unicode="&#xe91f;" glyph-name="twitter1" d="M497.209 646.005l2.22-36.602-36.995 4.482c-134.661 17.18-252.304 75.444-352.19 173.297l-48.833 48.553-12.578-35.854c-26.637-79.926-9.619-164.334 45.874-221.104 29.596-31.372 22.936-35.854-28.116-17.18-17.758 5.975-33.295 10.457-34.776 8.216-5.179-5.229 12.578-73.203 26.636-100.094 19.237-37.348 58.452-73.95 101.365-95.612l36.255-17.18-42.913-0.747c-41.434 0-42.913-0.747-38.475-16.434 14.798-48.553 73.25-100.094 138.36-122.504l45.874-15.687-39.954-23.904c-59.192-34.361-128.742-53.781-198.292-55.276-33.295-0.744-60.671-3.734-60.671-5.972 0-7.474 90.267-49.304 142.801-65.734 157.597-48.553 344.791-27.638 485.371 55.276 99.888 59.010 199.772 176.283 246.385 289.823 25.153 60.504 50.314 171.056 50.314 224.091 0 34.36 2.218 38.842 43.652 79.926 24.417 23.904 47.351 50.048 51.795 57.517 7.4 14.193 6.655 14.193-31.079 1.493-62.887-22.409-71.768-19.421-40.696 14.193 22.942 23.904 50.314 67.228 50.314 79.926 0 2.241-11.099-1.494-23.672-8.217-13.317-7.47-42.914-18.675-65.112-25.397l-39.952-12.699-36.259 24.65c-19.973 13.446-48.089 28.385-62.887 32.866-37.734 10.458-95.449 8.964-129.484-2.988-92.487-33.613-150.939-120.262-144.28-215.127z" />
<glyph unicode="&#xe920;" glyph-name="instagram" d="M455.977 959.778v0.156c-116.401-0.13-138.729-0.911-196.345-3.514-60.894-2.798-93.956-12.946-115.971-21.534-29.147-11.347-49.965-24.879-71.825-46.737s-35.417-42.678-46.737-71.825c-8.549-22.015-18.724-55.065-21.508-115.958-2.993-65.839-3.592-85.512-3.592-252.294s0.599-186.559 3.592-252.398c2.771-60.894 12.96-93.943 21.508-115.93 11.347-29.162 24.879-49.932 46.737-71.791 21.859-21.852 42.677-35.39 71.825-46.706 22.027-8.553 55.077-18.723 115.971-21.533 65.839-2.995 85.603-3.648 252.372-3.648 166.755 0 186.534 0.653 252.372 3.648 60.891 2.78 93.972 12.932 115.959 21.517 29.154 11.325 49.916 24.855 71.768 46.714 21.86 21.843 35.422 42.598 46.738 71.744 8.553 21.987 18.731 55.036 21.51 115.934 2.995 65.839 3.648 85.615 3.648 252.294s-0.653 186.455-3.648 252.294c-2.771 60.894-12.957 93.944-21.51 115.932-11.341 29.146-24.879 49.965-46.738 71.825-21.843 21.86-42.621 35.391-71.768 46.711-22.019 8.549-55.068 18.724-115.959 21.508-65.852 2.993-85.616 3.592-252.372 3.592l-20.815 0.006c-12.629 0.006-24.333 0.011-35.212-0.006zM845.287 856.074v0.026c41.378 0 74.953-33.57 74.953-74.946s-33.575-74.946-74.953-74.946c-41.371 0-74.945 33.569-74.945 74.946 0 41.391 33.575 74.92 74.945 74.92zM191.179 447.74c0 177.121 143.602 320.728 320.722 320.734 177.126 0 320.693-143.608 320.693-320.734s-143.553-320.668-320.679-320.668c-177.126 0-320.735 143.541-320.735 320.668z" />
<glyph unicode="&#xe921;" glyph-name="youtube" d="M912.063 794.026c44.061-12.091 78.764-47.716 90.539-92.956 21.399-81.993 21.399-253.071 21.399-253.071s0-171.073-21.399-253.071c-11.775-45.241-46.478-80.866-90.539-92.962-79.849-21.966-400.063-21.966-400.063-21.966s-320.215 0-400.069 21.966c-44.061 12.096-78.76 47.721-90.536 92.962-21.394 81.998-21.394 253.071-21.394 253.071s0 171.079 21.394 253.071c11.776 45.24 46.476 80.865 90.536 92.956 79.854 21.974 400.069 21.974 400.069 21.974s320.214 0 400.063-21.974zM415.985 591.998v-320l255.997 159.994-255.997 160.006z" />
<glyph unicode="&#xe922;" glyph-name="facebook" d="M590.815-64v512.060h141.351l18.732 176.459h-160.082l0.239 88.319c0 46.023 4.373 70.683 70.476 70.683h88.367v176.479h-141.371c-169.809 0-229.577-85.601-229.577-229.556v-105.945h-105.848v-176.458h105.848v-512.040h211.867z" />
<glyph unicode="&#xe923;" glyph-name="linkedin" d="M232.222 618.758h-219.514v-659.546h219.514v659.546zM246.953 822.864c-1.425 64.669-47.669 113.924-122.764 113.924s-124.188-49.255-124.188-113.924c0-63.329 47.643-114.002 121.339-114.002h1.403c76.541 0 124.211 50.673 124.211 114.002zM1024 337.429c0 202.585-108.292 296.871-252.745 296.871-116.546 0-168.727-64.016-197.861-108.925v93.419h-219.541c2.894-61.889 0-659.547 0-659.547h219.541v368.345c0 19.712 1.425 39.375 7.229 53.488 15.865 39.379 51.987 80.152 112.634 80.152 79.46 0 111.225-60.48 111.225-149.11v-352.861h219.51l0.007 378.166z" />
<glyph unicode="&#xe924;" glyph-name="check" d="M156.943 462.71l-97.066-71.522 335.4-455.188 568.845 962.661-103.805 61.339-476.108-805.721-227.266 308.432z" />
<glyph unicode="&#xe925;" glyph-name="load1" d="M873.746 809.136c-77.628 77.862-178.272 128.64-287.024 144.807-108.749 16.168-219.815-3.135-316.733-55.048s-174.529-133.671-221.332-233.158c-46.801-99.486-60.302-211.406-38.501-319.167s77.745-205.631 159.538-279.102c81.794-73.471 185.082-118.631 294.557-128.784 109.475-10.159 219.31 15.23 313.222 72.397s166.904 143.075 208.163 244.992h-141.942c-39.52-69.801-99.929-125.466-172.723-159.149-72.794-33.689-154.318-43.715-233.106-28.663s-150.875 54.424-206.125 112.575c-55.251 58.145-90.883 132.153-101.887 211.609s3.173 160.359 40.538 231.337c37.366 70.977 96.039 128.458 167.769 164.357s152.91 48.412 232.121 35.777c79.214-12.635 152.468-49.78 209.475-106.213l-203.326-205.881h447.569v447.566l-150.255-150.255z" />
</font>
</defs>
</svg>
