<svg width="946" height="989" fill="none" xmlns="http://www.w3.org/2000/svg"><path fill-rule="evenodd" clip-rule="evenodd" d="M918.512 654.924l-.005.016c-45.392 133.084-210.335 250.739-460.134 228.567-19.96-1.772-40.093 3.555-56.467 15.128-103.287 73.001-180.682 93.391-239.274 87.426-58.555-5.961-98.73-38.286-127.51-71.64-50.198-58.175-45.217-161.611 28.257-272.389 8.359-12.602 14.914-27.932 10.75-43.192-4.225-15.481-12.833-28.486-22.428-40.615-3.667-4.635-7.443-9.105-11.185-13.534-6.154-7.284-12.215-14.458-17.546-22.079-8.491-12.138-14.834-25.042-16.083-40.388-1.25-15.342 2.574-33.351 14.834-55.713l.036-.065.03-.068c16.529-36.784 43.661-57.551 79.093-76.4 13.412-7.135 27.959-13.968 43.556-21.294a3754.74 3754.74 0 0015.459-7.29c21.5-10.214 44.711-21.706 69.264-36.247 18.087-10.712 33.354-25.43 46.115-41.999 46.912-60.913 98.522-124.485 151.932-171.021 53.47-46.588 108.349-75.75 161.855-68.63l.093.012.094.003c32.326 1.007 57.344 18.811 77.336 46.344 20.018 27.57 34.857 64.723 46.761 103.961 10.035 33.076 17.948 67.504 25.134 98.769v.001a6469.65 6469.65 0 003.94 17.073c4.125 17.73 8.088 34.065 12.174 48.015 4.078 13.926 8.312 25.593 13.011 33.933 2.959 5.251 6.274 10.19 9.644 15.088 13.059 18.984 34.437 30.725 57.237 41.595 3.884 1.852 7.811 3.679 11.75 5.512 19.338 8.999 39 18.149 55.631 31.127 19.906 15.534 35.382 36.508 40.287 69.224 4.92 32.818-.773 77.608-23.635 140.753l-.006.017zM20.087 425.614c23.112-51.437 66.689-71.906 123.588-98.632 25.683-12.064 54.08-25.403 84.534-43.439 17.84-10.566 32.937-25.106 45.588-41.532C367.623 120.183 480.627-12.813 589.306 1.649 683.39 4.58 716.074 146.782 740.299 252.184c9.855 42.876 18.31 79.662 28.929 98.508 2.915 5.175 6.19 10.055 9.556 14.948 14.896 21.655 40.989 33.795 68.18 46.445 65.87 30.645 138.176 64.286 73.307 243.457-45.738 134.1-211.642 252.049-462.063 229.822-19.526-1.733-39.218 3.479-55.226 14.793-206.972 146.283-311.374 82.579-369.27 15.482-51.022-59.128-45.536-163.594 28.114-274.637 8.28-12.485 14.448-27.218 10.504-41.671-5.674-20.797-19.483-37.148-33.145-53.325-26.068-30.866-51.603-61.102-19.098-120.392zM579.98 47.59c87.913 2.404 117.953 135.029 140.22 233.333 9.048 39.946 16.813 74.225 26.655 91.797 2.722 4.859 5.788 9.44 8.946 14.028 13.85 20.128 38.171 31.359 63.514 43.061 61.448 28.374 128.901 59.521 67.647 227.001-58.853 134.29-189.98 226.311-422.091 204.959-18.092-1.664-36.334 3.216-51.149 13.733-194.898 138.368-302.283 89.697-356.183 27.233-47.5-55.048-41.969-152.666 27.367-256.651 7.71-11.561 13.467-25.21 9.872-38.632-5.209-19.45-18.082-34.695-30.818-49.778-24.252-28.721-48.008-56.855-17.422-112.315 23.924-43.38 64.306-63.917 117.078-90.755 23.736-12.072 49.98-25.419 78.359-42.692 16.364-9.96 30.342-23.345 42.052-38.506C372.189 159.263 478.371 34.461 579.98 47.59zm305.371 608.573c21.567-58.985 27.044-100.795 22.569-131.401-4.462-30.519-18.838-50.042-37.374-64.471-15.5-12.067-33.854-20.544-51.905-28.881h-.001l-.001-.001-.002-.001h-.001l-.013-.006-.014-.007a1254.44 1254.44 0 01-10.879-5.065c-21.265-10.063-41.207-20.939-53.359-38.598-3.162-4.595-6.267-9.231-9.03-14.164-4.358-7.781-8.271-18.667-12.032-31.658-3.767-13.013-7.412-28.249-11.204-44.785-1.181-5.153-2.377-10.433-3.596-15.814l-.004-.018c-6.61-29.18-13.889-61.316-23.16-92.177-10.986-36.571-24.721-71.182-43.327-96.832-18.579-25.613-41.888-42.134-72.085-42.96l-.088-.002-.087-.011c-50.03-6.464-101.475 21.015-151.657 64.768-50.125 43.704-98.62 103.317-142.701 160.388-11.814 15.296-25.944 28.837-42.522 38.927-22.922 13.952-44.446 25.343-64.361 35.557-4.81 2.468-9.523 4.865-14.138 7.212-14.509 7.379-28.046 14.263-40.57 21.28-32.982 18.481-58.64 37.727-75.751 68.754-11.547 20.936-15.18 37.772-14.06 52.096 1.12 14.326 7.014 26.353 14.916 37.657 3.954 5.657 8.396 11.112 12.982 16.581 1.118 1.333 2.245 2.668 3.376 4.007l.002.002c3.493 4.137 7.018 8.312 10.386 12.575 8.928 11.3 16.921 23.427 20.794 37.888 3.796 14.172-2.322 28.374-10.104 40.044-69.177 103.746-74.225 200.401-27.497 254.554 26.712 30.957 66.616 58.442 123.983 61.094 57.42 2.656 132.612-19.553 229.881-88.608 15.155-10.758 33.81-15.748 52.313-14.046 115.802 10.653 206.253-6.989 275.037-43.915 68.755-36.909 115.993-93.154 145.284-159.963zM698.094 310.485c-20.762-90.813-48.773-213.332-129.89-215.746-93.209-12.272-190.283 101.256-271.08 205.924-11.762 15.236-25.777 28.692-42.261 38.628-25.354 15.281-48.839 27.192-70.134 37.992-48.63 24.662-85.843 43.535-107.82 83.535-28.098 51.138-6.117 77.167 16.322 103.738 11.43 13.534 22.978 27.209 28.088 44.414 3.965 13.351-1.853 27.072-9.518 38.7-62.838 95.318-67.457 184.79-23.73 235.465 67.073 73.395 180.504 95.929 322.607-24.684 15.88-13.479 36.601-20.268 57.35-18.448 210.235 18.444 331.323-59.535 384.759-182.094 56.145-154.498-6.159-183.405-62.916-209.739-23.204-10.766-45.481-21.101-58.359-39.413-3.189-4.534-6.238-9.103-8.903-13.964-8.988-16.391-16.165-47.785-24.515-84.308zM221.231 941.999c-53.995.266-98.716-23.475-132.002-59.89-43.03-49.888-38.823-138.499 23.863-233.587 7.72-11.711 13.881-25.949 9.71-39.993-3.871-13.034-11.339-24.029-19.565-34.328-2.922-3.658-5.92-7.207-8.893-10.728l-.003-.002v-.002c-5.47-6.475-10.857-12.852-15.535-19.628-7.167-10.38-12.47-21.443-13.436-34.595-.965-13.15 2.395-28.574 12.895-47.683 15.596-28.386 38.976-46.047 69.01-62.912 11.747-6.596 24.473-13.05 38.134-19.978l.001-.001.005-.002c3.816-1.936 7.706-3.909 11.669-5.932 18.127-9.258 37.718-19.55 58.577-32.122 16.682-10.054 30.834-23.652 42.687-39.007 40.398-52.333 84.784-106.771 130.676-146.592 45.94-39.862 93.063-64.79 138.978-58.744l.078.01.078.002c27.804.828 49.317 16.059 66.499 39.64 17.204 23.612 29.952 55.457 40.17 89.129 8.709 28.7 15.549 58.619 21.756 85.766 1.073 4.691 2.126 9.299 3.167 13.804 3.53 15.274 6.917 29.367 10.406 41.437 3.484 12.051 7.094 22.178 11.096 29.476 2.706 4.936 5.794 9.559 8.994 14.11 11.355 16.146 29.782 26.147 49.397 35.451 3.174 1.506 6.381 2.994 9.598 4.487l.017.008.003.001c16.778 7.786 33.847 15.707 48.236 26.997 17.062 13.386 30.29 31.474 34.42 59.661 4.141 28.262-.848 66.805-20.568 121.083-26.589 60.96-69.976 110.796-132.849 143.121-62.907 32.342-145.428 47.209-250.336 38.006-21.172-1.858-42.3 5.069-58.487 18.809-70.871 60.153-134.416 84.461-188.446 84.728zM559.61 136.411c73.885 1.919 98.98 113.306 117.581 195.868 7.464 33.13 13.883 61.619 21.988 76.531 2.438 4.484 5.241 8.696 8.182 12.867 11.678 16.56 31.899 25.872 52.961 35.57 51.612 23.767 108.268 49.856 56.592 190.631-49.205 111.948-160.154 183.386-352.377 166.907-18.172-1.558-36.448 4.078-50.44 15.776-152.598 127.577-219.278 99.002-294.569 24.883-43.899-43.216-35.625-127.131 22.445-214.403 7.025-10.559 12.357-23.043 8.775-35.21-4.6-15.625-15.066-28.021-25.425-40.289-20.349-24.101-40.283-47.71-14.513-94.338 20.158-36.473 54.121-53.773 98.505-76.381v-.001c19.483-9.924 40.974-20.871 64.186-34.911 14.939-9.036 27.656-21.235 38.345-35.04 73.984-95.56 162.853-199.311 247.764-188.46zm255.992 510.938c18.141-49.431 22.822-84.507 19.158-110.204-3.653-25.626-15.622-42.038-31.097-54.159-13.078-10.242-28.618-17.4-43.896-24.437a1129.738 1129.738 0 01-8.658-4.017c-17.83-8.392-34.59-17.415-44.904-32.04-2.953-4.189-5.792-8.452-8.268-13.007-3.615-6.65-6.865-15.868-9.995-26.832-3.134-10.98-6.169-23.796-9.331-37.681-.919-4.038-1.85-8.167-2.796-12.369l-.002-.007-.003-.015c-5.569-24.718-11.708-51.962-19.559-78.082-9.192-30.58-20.694-59.481-36.279-80.882-15.562-21.37-35.093-35.135-60.398-35.792l-.072-.002-.071-.009c-41.828-5.345-84.865 17.526-126.874 53.991-41.963 36.425-82.602 86.153-119.593 133.931-10.772 13.914-23.615 26.241-38.732 35.385-19.065 11.532-36.966 20.978-53.529 29.475-3.648 1.871-7.229 3.695-10.742 5.485l-.021.01-.001.001c-12.445 6.339-24.04 12.245-34.747 18.276-27.446 15.46-48.828 31.617-63.144 57.52-9.629 17.422-12.743 31.466-11.911 43.425.832 11.959 5.621 22.003 12.11 31.42 4.239 6.153 9.126 11.939 14.089 17.816l.001.001c2.693 3.188 5.408 6.403 8.055 9.718 7.458 9.341 14.226 19.319 17.713 31.164 3.768 12.8-1.878 25.757-8.955 36.392-28.945 43.501-45.421 86.082-49.231 123.084-3.81 36.995 5.042 68.304 26.601 89.528 37.603 37.018 72.748 62.333 117.317 62.788 44.63.457 99.115-24.011 175.353-87.748 14.284-11.942 32.931-17.689 51.467-16.1 95.921 8.223 171.432-5.5 229.053-35.142 57.591-29.625 97.408-75.202 121.892-130.885zM654.516 356.915c-16.943-75.096-39.801-176.41-106.992-178.179-76.656-9.825-156.822 83.06-223.775 169.414-10.706 13.807-23.408 26.024-38.397 35.003-20.317 12.17-39.161 21.765-56.298 30.49-40.354 20.547-71.234 36.27-89.554 69.435-23.42 42.4-5.284 63.878 13.229 85.804 9.051 10.719 18.192 21.545 22.612 34.974 3.966 12.051-1.443 24.572-8.419 35.169-51.897 78.824-59.055 154.443-19.367 193.518 68.162 67.108 128.553 93.193 265.856-20.854 14.036-11.659 32.291-17.282 50.477-15.793 173.213 14.188 273.308-50.607 317.796-151.901 46.946-128.016-4.584-151.763-51.528-173.396-18.917-8.717-37.09-17.091-47.773-31.807-2.996-4.127-5.796-8.362-8.171-12.875-7.223-13.722-12.997-39.313-19.696-69.002zm143.451 186.622c3.275 23.363-1.002 55.205-17.425 99.998-22.142 50.395-58.096 91.683-110.05 118.624-51.981 26.955-120.063 39.591-206.504 32.511-18.5-1.515-37.075 4.204-51.364 16.072-68.595 56.978-117.727 78.723-158.049 78.077-40.274-.646-72.112-23.635-106.156-57.153-19.508-19.206-27.591-47.47-24.3-80.855 3.29-33.393 17.959-71.815 43.83-111.11 7.01-10.647 12.716-23.604 8.561-36.23-3.437-10.441-9.654-19.297-16.395-27.637-2.14-2.648-4.324-5.234-6.492-7.801l-.001-.002-.001-.001-.001-.001-.001-.001-.001-.002c-4.709-5.576-9.345-11.066-13.303-16.913-5.744-8.487-9.934-17.566-10.59-28.358-.656-10.794 2.215-23.445 10.852-39.082 12.888-23.332 32.081-37.967 56.682-51.894 9.941-5.628 20.736-11.124 32.343-17.034 2.766-1.409 5.578-2.84 8.436-4.303 14.837-7.595 30.87-16.005 47.946-26.234 15.148-9.073 27.96-21.404 38.737-35.305 33.475-43.174 70.19-87.896 108.081-120.595 37.929-32.733 76.781-53.194 114.566-48.351l.062.008.062.001c22.938.604 40.666 13.04 54.802 32.35 14.156 19.336 24.624 45.457 32.994 73.131 7.252 23.975 12.904 49.027 18.027 71.733a5408.54 5408.54 0 002.331 10.304c5.734 25.19 11.011 46.723 17.477 59.006 2.413 4.584 5.249 8.87 8.265 13.025 9.506 13.094 24.758 21.21 40.941 28.811 2.429 1.141 4.879 2.27 7.337 3.403 14.019 6.461 28.288 13.038 40.252 22.491 13.988 11.053 24.782 26.016 28.049 49.317zm-266.283-322.36c60.361 1.737 81.116 92.862 96.499 160.406h.001v.002c5.975 26.234 11.14 48.91 17.5 61.41 2.302 4.524 5.095 8.777 8.143 12.836 9.68 12.892 25.791 20.352 42.551 28.113 42.217 19.549 88.559 41.008 46.666 155.985-39.489 90.38-128.372 148.248-282.172 136.1-18.245-1.441-36.495 4.149-50.625 15.782-121.438 99.982-175.443 76.318-236.427 16.228-35.445-34.924-29.572-102.063 15.842-172.183 6.913-10.673 12.41-23.319 7.95-35.228-4.201-11.216-11.997-20.448-19.72-29.593-16.678-19.751-33.016-39.099-12.071-77.162 16.384-29.773 44.089-43.84 80.295-62.223 14.677-7.452 30.75-15.613 48.032-25.817 15.118-8.926 27.879-21.24 38.64-35.112 59.6-76.831 130.684-158.456 198.896-149.544zm210.391 418.364c14.594-40.064 18.401-68.618 15.475-89.617-2.918-20.949-12.547-34.459-25.045-44.451-10.84-8.667-23.815-14.676-36.55-20.575h-.001c-2.019-.935-4.032-1.867-6.03-2.807-14.518-6.83-28.241-14.06-36.932-25.633-3.074-4.093-5.902-8.398-8.238-12.99-5.756-11.311-10.512-30.757-15.707-53.41a5418.75 5418.75 0 01-1.858-8.141l-.017-.073-.007-.031c-4.705-20.658-9.902-43.478-16.578-65.273-7.58-24.748-17.038-48.076-29.772-65.35-12.718-17.253-28.631-28.379-49.161-28.969l-.053-.002-.052-.007c-33.649-4.396-68.173 13.529-101.864 42.377-33.659 28.821-66.275 68.36-96.072 106.772-10.82 13.949-23.676 26.362-38.934 35.371-15.008 8.861-29.102 16.182-42.147 22.828-1.993 1.015-3.961 2.014-5.903 3l-.045.023c-10.766 5.466-20.753 10.537-29.917 15.752-21.643 12.318-38.553 25.365-49.931 46.041-7.594 13.801-10.194 25.027-9.7 34.634.495 9.604 4.086 17.706 9.082 25.258 3.677 5.559 8.072 10.764 12.537 16.051l.004.005a516.394 516.394 0 014.884 5.842c6.012 7.339 11.665 15.069 15.046 24.096 4.652 12.419-1.121 25.462-8.051 36.162-22.642 34.959-35.384 69.113-38.08 98.816-2.694 29.697 4.654 54.871 22.094 72.056 30.463 30.015 58.959 50.694 94.838 51.613 35.915.919 79.525-17.954 140.194-67.904 14.343-11.809 32.861-17.478 51.37-16.016 76.759 6.062 137.222-5.354 183.387-29.487 46.144-24.122 78.075-60.984 97.734-105.961zM613.837 402.159c-13.715-60.086-32.218-141.15-85.9-142.725-59.97-7.87-122.392 62.949-174.978 130.56-10.791 13.873-23.537 26.225-38.73 35.063-14.396 8.376-27.826 15.19-40.148 21.442-32.189 16.333-56.821 28.831-71.377 55.306-18.608 33.846-4.068 51.063 10.774 68.639 6.407 7.587 12.87 15.24 16.748 24.327 4.994 11.702-.593 24.44-7.427 35.172-39.272 61.681-44.053 120.531-12.823 151.308 53.854 53.075 101.577 74.234 207.811-12.315 14.199-11.569 32.369-17.102 50.635-15.77 134.831 9.839 212.894-41.412 247.694-121.157 37.198-102.248-4.025-121.359-41.58-138.768-14.62-6.778-28.685-13.299-37.349-24.366-3.125-3.993-5.925-8.308-8.145-12.866-5.485-11.27-10-31.05-15.205-53.85zm115.247 150.1c2.535 18.667-.875 43.993-13.765 79.432-17.33 39.699-45.414 72.284-85.939 93.733-40.544 21.457-93.597 31.798-160.895 26.887-18.479-1.348-36.866 4.249-51.24 15.96-53.073 43.239-91.355 59.419-122.976 58.324-31.597-1.093-56.788-19.441-83.691-45.954-15.387-15.164-21.96-37.293-19.774-63.383 2.186-26.096 13.135-56.097 32.718-86.854 6.837-10.738 12.675-23.828 7.493-35.97-3.268-7.656-8.33-14.285-13.602-20.637-1.089-1.312-2.186-2.611-3.278-3.905l-.004-.004-.016-.02c-4.214-4.989-8.36-9.899-11.742-15.174-4.247-6.624-7.24-13.758-7.559-22.192-.319-8.438 2.035-18.268 8.642-30.284 9.954-18.106 24.68-29.632 43.485-40.426 8.399-4.822 17.592-9.486 27.529-14.528l.008-.004 3.606-1.831c11.323-5.754 23.554-12.054 36.577-19.631 15.311-8.907 28.136-21.343 38.975-35.278 26.29-33.801 54.996-68.347 84.598-93.458 29.626-25.13 59.979-40.664 89.592-36.778l.043.005.043.002c18.17.533 32.28 10.33 43.571 25.524 11.304 15.213 19.724 35.765 26.478 57.611 6.075 19.648 10.784 40.278 15.041 58.925l.002.008.018.081c.468 2.048.929 4.071 1.387 6.067 4.62 20.142 8.824 37.526 13.862 47.877 2.25 4.622 5.084 8.987 8.241 13.019 7.872 10.056 20.084 16.384 32.955 22.424 1.561.732 3.133 1.461 4.709 2.192l.004.002c11.477 5.321 23.181 10.748 32.906 18.627 11.014 8.924 19.469 20.984 21.998 39.611zM509.047 307.632c47.002 1.414 63.254 72.417 75.301 125.045v.003c4.447 19.424 8.32 36.344 12.955 46.34 2.13 4.593 4.895 8.918 8.115 12.825 7.632 9.26 19.651 14.84 32.133 20.635 32.892 15.27 68.997 32.032 36.493 121.551-30.105 69.094-97.329 113.719-213.156 106.196-18.293-1.188-36.539 4.375-50.834 15.851-90.95 73.014-132.369 54.359-179.066 8.328-27.013-26.629-23.315-77.196 9.831-130.432 6.729-10.809 12.384-23.654 6.763-35.078-3.449-7.007-8.575-13.078-13.662-19.1-13.006-15.402-25.747-30.489-9.476-60.117 12.727-23.176 34.285-34.105 62.458-48.388 9.948-5.043 20.72-10.504 32.219-17.07 15.286-8.728 28.034-21.133 38.866-35.007 45.565-58.362 99.329-118.409 151.06-111.582zm164.374 326.15c11.186-30.814 14.197-52.91 12.052-69.244-2.14-16.304-9.422-26.914-18.951-34.768-8.608-7.095-19.042-11.94-29.258-16.684a995.961 995.961 0 01-3.399-1.582c-11.222-5.253-21.92-10.684-28.965-19.232-3.254-3.949-6.051-8.322-8.206-12.97-4.335-9.348-7.993-24.654-12.039-42.281l-.407-1.774-.554-2.417c-3.801-16.606-8.014-35.011-13.476-52.482-5.928-18.961-13.31-36.761-23.188-49.931-9.868-13.156-22.182-21.638-38.003-22.114l-.034-.001-.034-.004c-25.577-3.376-51.761 9.774-77.323 31.194-25.545 21.404-50.341 50.958-73.12 80.135-10.868 13.92-23.679 26.393-39.062 35.177-11.032 6.299-21.395 11.582-30.991 16.449l-1.25.633c-9.119 4.623-17.524 8.884-25.161 13.32-15.958 9.271-28.493 19.269-37.02 34.796-5.618 10.229-7.723 18.658-7.576 25.923.147 7.26 2.544 13.422 6.041 19.12 3.071 5.003 6.97 9.621 10.934 14.315l.014.017c.559.661 1.118 1.324 1.677 1.99 4.513 5.376 8.956 10.921 12.062 17.233 2.901 5.896 2.877 12.137 1.298 18.234-1.578 6.087-4.715 12.068-8.094 17.495-16.532 26.553-25.694 52.4-27.375 74.889-1.68 22.484 4.116 41.569 17.447 54.71 23.329 22.997 45.203 39.007 72.498 40.285 27.31 1.28 60.238-12.181 105.676-48.658 14.43-11.584 32.842-17.196 51.297-15.997 57.822 3.755 103.452-5.509 138.363-24.288 34.898-18.772 59.129-47.075 74.127-81.488zM562.378 457.129c-10.339-44.463-24.288-104.449-63.916-105.806-42.59-5.801-86.591 42.169-124.203 90.128-10.952 13.965-23.767 26.53-39.295 35.124-8.215 4.547-15.968 8.458-23.201 12.108h-.001c-23.7 11.957-41.836 21.106-52.484 40.623-13.613 24.951-2.82 37.73 8.199 50.775 3.634 4.303 7.293 8.634 10.108 13.441 6.461 11.03.789 24.081-5.771 35.052-26.198 43.81-28.564 85.206-6.164 107.316 38.876 38.374 73.357 54.377 147.19-3.443 14.507-11.36 32.784-16.894 51.182-15.872 94.818 5.263 149.938-31.897 174.674-89.181 27.089-75.444-3.407-89.718-31.189-102.722-10.161-4.756-19.959-9.342-26.443-16.689-3.324-3.766-6.032-8.077-8.048-12.677-3.75-8.554-6.966-22.386-10.638-38.177zm85.845 112.057c1.763 13.772-.746 32.313-9.978 58.03-12.33 28.546-32.222 52.065-60.839 67.799-28.626 15.739-66.015 23.704-113.357 21.076-18.512-1.028-36.906 4.539-51.508 15.975-36.886 28.885-63.844 39.249-86.371 37.692-22.524-1.558-40.754-15.039-60.18-34.213-11.077-10.934-16.059-26.66-14.998-45.148 1.06-18.491 8.167-39.717 21.238-61.575 3.288-5.498 6.376-11.554 7.824-17.64 1.449-6.094 1.261-12.251-2.05-17.905-2.837-4.843-6.518-9.201-10.144-13.493l-.1-.118c-3.667-4.343-7.268-8.62-9.953-13.317-2.679-4.687-4.436-9.777-4.418-15.735.019-5.961 1.816-12.832 6.314-21.076 6.891-12.63 16.948-20.896 29.702-28.441 6.38-3.774 13.426-7.363 21.084-11.229l1.493-.753c7.233-3.649 14.993-7.564 23.217-12.116 15.603-8.636 28.465-21.253 39.441-35.249 18.803-23.976 39.179-47.922 60.161-65.149 20.993-17.235 42.504-27.671 63.595-24.798l.025.003.024.001c13.236.454 23.592 7.533 31.923 18.493 8.339 10.969 14.619 25.787 19.682 41.612 4.817 15.059 8.522 30.992 11.857 45.332l.503 2.164c3.461 14.866 6.563 27.882 10.162 36.092 2.036 4.644 4.77 8.999 8.128 12.803 6.13 6.946 15.165 11.436 24.58 15.86l1.987.932.023.01c8.823 4.131 17.849 8.356 25.231 14.602 7.919 6.701 13.942 15.729 15.702 29.479z" fill="url(#paint0_radial_495_1723)"/><defs><radialGradient id="paint0_radial_495_1723" cx="0" cy="0" r="1" gradientUnits="userSpaceOnUse" gradientTransform="rotate(50.554 -329.426 636.252) scale(525.769 676.201)"><stop stop-color="#42D481"/><stop offset="1" stop-color="#42D481" stop-opacity="0"/></radialGradient></defs></svg>